<?xml version="1.0" encoding="UTF-8" standalone="no"?>
<svg
   xmlns:dc="http://purl.org/dc/elements/1.1/"
   xmlns:cc="http://creativecommons.org/ns#"
   xmlns:rdf="http://www.w3.org/1999/02/22-rdf-syntax-ns#"
   xmlns:svg="http://www.w3.org/2000/svg"
   xmlns="http://www.w3.org/2000/svg"
   id="svg865"
   version="1.1"
   viewBox="0 0 281.2143 281.2143"
   height="281.21429mm"
   width="281.21429mm">
  <defs
     id="defs859" />
  <metadata
     id="metadata862">
    <rdf:RDF>
      <cc:Work
         rdf:about="">
        <dc:format>image/svg+xml</dc:format>
        <dc:type
           rdf:resource="http://purl.org/dc/dcmitype/StillImage" />
        <dc:title></dc:title>
      </cc:Work>
    </rdf:RDF>
  </metadata>
  <g
     transform="translate(457.61582,268.94376)"
     id="layer1">
    <circle
       r="140.26231"
       cy="-128.33661"
       cx="-317.00867"
       id="path1769"
       style="opacity:1;fill:#cccccc;fill-opacity:1;stroke:#cccccc;stroke-width:0.68967885;stroke-linecap:square;stroke-miterlimit:4;stroke-dasharray:none;stroke-dashoffset:0;stroke-opacity:1" />
    <g
       transform="translate(-4.800317,-203.08661)"
       id="g1779">
      <path
         style="fill:none;stroke:#333333;stroke-width:6.86680984;stroke-linecap:butt;stroke-linejoin:miter;stroke-miterlimit:4;stroke-dasharray:none;stroke-opacity:1"
         d="m -248.42916,74.749996 a 63.77859,63.77859 0 0 1 -63.77859,63.778594 63.77859,63.77859 0 0 1 -63.77859,-63.778594 63.77859,63.77859 0 0 1 63.77859,-63.778591 63.77859,63.77859 0 0 1 63.77859,63.778591 z"
         id="path2985-5-5" />
      <path
         style="fill:none;stroke:#333333;stroke-width:6.86680984;stroke-linecap:butt;stroke-linejoin:miter;stroke-miterlimit:4;stroke-dasharray:none;stroke-opacity:1"
         d="m -248.42915,10.971405 a 63.77859,63.77859 0 0 1 -63.77859,63.778593 63.77859,63.77859 0 0 1 -63.77859,-63.778593 63.77859,63.77859 0 0 1 63.77859,-63.77859 63.77859,63.77859 0 0 1 63.77859,63.77859 z"
         id="path2985-9-1-8" />
      <path
         style="fill:none;stroke:#333333;stroke-width:6.86680984;stroke-linecap:butt;stroke-linejoin:miter;stroke-miterlimit:4;stroke-dasharray:none;stroke-opacity:1"
         d="m -248.42915,138.52859 a 63.77859,63.77859 0 0 1 -63.77859,63.77859 63.77859,63.77859 0 0 1 -63.77859,-63.77859 63.77859,63.77859 0 0 1 63.77859,-63.778596 63.77859,63.77859 0 0 1 63.77859,63.778596 z"
         id="path2985-4-3-2" />
      <path
         style="fill:none;stroke:#333333;stroke-width:6.86680984;stroke-linecap:butt;stroke-linejoin:miter;stroke-miterlimit:4;stroke-dasharray:none;stroke-opacity:1"
         d="m -303.67527,42.8607 a 63.77859,63.77859 0 0 1 -63.77859,63.77859 63.77859,63.77859 0 0 1 -63.7786,-63.77859 63.77859,63.77859 0 0 1 63.7786,-63.77859 63.77859,63.77859 0 0 1 63.77859,63.77859 z"
         id="path2985-9-7-6-8" />
      <path
         style="fill:none;stroke:#333333;stroke-width:6.86680984;stroke-linecap:butt;stroke-linejoin:miter;stroke-miterlimit:4;stroke-dasharray:none;stroke-opacity:1"
         d="m -193.183,42.860705 a 63.77859,63.77859 0 0 1 -63.7786,63.778595 63.77859,63.77859 0 0 1 -63.77858,-63.778595 63.77859,63.77859 0 0 1 63.77858,-63.77859 63.77859,63.77859 0 0 1 63.7786,63.77859 z"
         id="path2985-9-2-3-7" />
      <path
         style="fill:none;stroke:#333333;stroke-width:6.86680984;stroke-linecap:butt;stroke-linejoin:miter;stroke-miterlimit:4;stroke-dasharray:none;stroke-opacity:1"
         d="m -303.67498,106.63929 a 63.77859,63.77859 0 0 1 -63.7786,63.77859 63.77859,63.77859 0 0 1 -63.77859,-63.77859 63.77859,63.77859 0 0 1 63.77859,-63.778595 63.77859,63.77859 0 0 1 63.7786,63.778595 z"
         id="path2985-9-72-3-7" />
      <path
         style="fill:none;stroke:#333333;stroke-width:6.86680984;stroke-linecap:butt;stroke-linejoin:miter;stroke-miterlimit:4;stroke-dasharray:none;stroke-opacity:1"
         d="m -193.183,106.6393 a 63.77859,63.77859 0 0 1 -63.7786,63.77859 63.77859,63.77859 0 0 1 -63.77858,-63.77859 63.77859,63.77859 0 0 1 63.77858,-63.778595 63.77859,63.77859 0 0 1 63.7786,63.778595 z"
         id="path2985-9-8-8-8" />
      <path
         style="fill:none;stroke:#333333;stroke-width:6.86680984;stroke-miterlimit:4;stroke-dasharray:none;stroke-opacity:1"
         d="M -183.35009,74.749991 A 128.85826,128.85826 0 0 1 -312.20835,203.60825 128.85826,128.85826 0 0 1 -441.06661,74.749991 128.85826,128.85826 0 0 1 -312.20835,-54.10827 128.85826,128.85826 0 0 1 -183.35009,74.749991 Z"
         id="path4108-1" />
    </g>
    <ellipse
       ry="103.94345"
       rx="111.125"
       cy="-162.24106"
       cx="-449.03574"
       id="path1765"
       style="opacity:0;fill:#b3b3b3;fill-opacity:1;stroke:#b3b3b3;stroke-width:0.52916664;stroke-linecap:square;stroke-miterlimit:4;stroke-dasharray:none;stroke-dashoffset:0;stroke-opacity:1" />
  </g>
</svg>
