<?xml version="1.0" encoding="UTF-8" standalone="no"?>
<svg
   xmlns:dc="http://purl.org/dc/elements/1.1/"
   xmlns:cc="http://creativecommons.org/ns#"
   xmlns:rdf="http://www.w3.org/1999/02/22-rdf-syntax-ns#"
   xmlns:svg="http://www.w3.org/2000/svg"
   xmlns="http://www.w3.org/2000/svg"
   id="svg865"
   version="1.1"
   viewBox="0 0 529.16669 529.16669"
   height="529.16669mm"
   width="529.16669mm">
  <defs
     id="defs859" />
  <metadata
     id="metadata862">
    <rdf:RDF>
      <cc:Work
         rdf:about="">
        <dc:format>image/svg+xml</dc:format>
        <dc:type
           rdf:resource="http://purl.org/dc/dcmitype/StillImage" />
        <dc:title></dc:title>
      </cc:Work>
    </rdf:RDF>
  </metadata>
  <g
     transform="translate(444.50002,322.12501)"
     id="layer1">
    <path
       id="path2985-5-5"
       d="M -52.358299,-57.541668 A 127.55718,127.55718 0 0 1 -179.91548,70.015514 127.55718,127.55718 0 0 1 -307.47266,-57.541668 127.55718,127.55718 0 0 1 -179.91548,-185.09885 127.55718,127.55718 0 0 1 -52.358299,-57.541668 Z"
       style="fill:none;stroke:#333333;stroke-width:13.73361969;stroke-linecap:butt;stroke-linejoin:miter;stroke-miterlimit:4;stroke-dasharray:none;stroke-opacity:1" />
    <path
       id="path2985-9-1-8"
       d="M -52.358284,-185.09885 A 127.55718,127.55718 0 0 1 -179.91547,-57.541664 127.55718,127.55718 0 0 1 -307.47265,-185.09885 127.55718,127.55718 0 0 1 -179.91547,-312.65603 127.55718,127.55718 0 0 1 -52.358284,-185.09885 Z"
       style="fill:none;stroke:#333333;stroke-width:13.73361969;stroke-linecap:butt;stroke-linejoin:miter;stroke-miterlimit:4;stroke-dasharray:none;stroke-opacity:1" />
    <path
       id="path2985-4-3-2"
       d="M -52.358284,70.015511 A 127.55718,127.55718 0 0 1 -179.91547,197.57269 127.55718,127.55718 0 0 1 -307.47265,70.015511 127.55718,127.55718 0 0 1 -179.91547,-57.541672 127.55718,127.55718 0 0 1 -52.358284,70.015511 Z"
       style="fill:none;stroke:#333333;stroke-width:13.73361969;stroke-linecap:butt;stroke-linejoin:miter;stroke-miterlimit:4;stroke-dasharray:none;stroke-opacity:1" />
    <path
       id="path2985-9-7-6-8"
       d="M -162.85053,-121.32026 A 127.55718,127.55718 0 0 1 -290.40771,6.2369232 127.55718,127.55718 0 0 1 -417.9649,-121.32026 a 127.55718,127.55718 0 0 1 127.55719,-127.55718 127.55718,127.55718 0 0 1 127.55718,127.55718 z"
       style="fill:none;stroke:#333333;stroke-width:13.73361969;stroke-linecap:butt;stroke-linejoin:miter;stroke-miterlimit:4;stroke-dasharray:none;stroke-opacity:1" />
    <path
       id="path2985-9-2-3-7"
       d="M 58.13401,-121.32025 A 127.55718,127.55718 0 0 1 -69.423172,6.2369308 127.55718,127.55718 0 0 1 -196.98035,-121.32025 127.55718,127.55718 0 0 1 -69.423172,-248.87743 127.55718,127.55718 0 0 1 58.13401,-121.32025 Z"
       style="fill:none;stroke:#333333;stroke-width:13.73361969;stroke-linecap:butt;stroke-linejoin:miter;stroke-miterlimit:4;stroke-dasharray:none;stroke-opacity:1" />
    <path
       id="path2985-9-72-3-7"
       d="M -162.84995,6.2369123 A 127.55718,127.55718 0 0 1 -290.40714,133.79409 127.55718,127.55718 0 0 1 -417.96432,6.2369123 127.55718,127.55718 0 0 1 -290.40714,-121.32027 127.55718,127.55718 0 0 1 -162.84995,6.2369123 Z"
       style="fill:none;stroke:#333333;stroke-width:13.73361969;stroke-linecap:butt;stroke-linejoin:miter;stroke-miterlimit:4;stroke-dasharray:none;stroke-opacity:1" />
    <path
       id="path2985-9-8-8-8"
       d="M 58.13401,6.2369323 A 127.55718,127.55718 0 0 1 -69.423172,133.79411 127.55718,127.55718 0 0 1 -196.98035,6.2369323 127.55718,127.55718 0 0 1 -69.423172,-121.32025 127.55718,127.55718 0 0 1 58.13401,6.2369323 Z"
       style="fill:none;stroke:#333333;stroke-width:13.73361969;stroke-linecap:butt;stroke-linejoin:miter;stroke-miterlimit:4;stroke-dasharray:none;stroke-opacity:1" />
    <path
       id="path4108-1"
       d="M 77.799835,-57.541679 A 257.71652,257.71652 0 0 1 -179.91669,200.17484 257.71652,257.71652 0 0 1 -437.63321,-57.541679 257.71652,257.71652 0 0 1 -179.91669,-315.2582 257.71652,257.71652 0 0 1 77.799835,-57.541679 Z"
       style="fill:none;stroke:#333333;stroke-width:13.73361969;stroke-miterlimit:4;stroke-dasharray:none;stroke-opacity:1" />
  </g>
</svg>
