<?xml version="1.0" encoding="UTF-8" standalone="no"?>
<svg
   xmlns:dc="http://purl.org/dc/elements/1.1/"
   xmlns:cc="http://creativecommons.org/ns#"
   xmlns:rdf="http://www.w3.org/1999/02/22-rdf-syntax-ns#"
   xmlns:svg="http://www.w3.org/2000/svg"
   xmlns="http://www.w3.org/2000/svg"
   id="svg909"
   version="1.1"
   viewBox="0 0 196.10811 23.490253"
   height="23.490253mm"
   width="196.10811mm">
  <defs
     id="defs903" />
  <metadata
     id="metadata906">
    <rdf:RDF>
      <cc:Work
         rdf:about="">
        <dc:format>image/svg+xml</dc:format>
        <dc:type
           rdf:resource="http://purl.org/dc/dcmitype/StillImage" />
        <dc:title></dc:title>
      </cc:Work>
    </rdf:RDF>
  </metadata>
  <g
     transform="translate(-22.605843,-214.79775)"
     id="layer1">
    <g
       id="g1548">
      <path
         id="path1538"
         d="M 22.870486,225.04288 H 210.76897 l 7.8956,1.5"
         style="fill:none;stroke:#333333;stroke-width:0.5291667;stroke-linecap:butt;stroke-linejoin:miter;stroke-miterlimit:4;stroke-dasharray:none;stroke-opacity:1" />
      <path
         id="path1540"
         d="m 124.11854,224.66481 -6.00098,-7.21934 c -8.98301,-0.60032 -26.167296,-2.30614 -44.130904,-2.03042 -29.406233,0.45133 -29.720006,2.02649 -50.332942,-0.33631 -0.655893,-0.0957 -0.78622,0.21833 -0.783228,0.62121 v 9.34293"
         style="fill:none;stroke:#333333;stroke-width:0.5291667;stroke-linecap:square;stroke-linejoin:miter;stroke-miterlimit:4;stroke-dasharray:none;stroke-opacity:1" />
      <path
         style="fill:none;stroke:#333333;stroke-width:0.5291667;stroke-linecap:butt;stroke-linejoin:miter;stroke-miterlimit:4;stroke-dasharray:none;stroke-opacity:1"
         d="M 22.870487,228.04288 H 210.76897 l 7.8956,-1.5"
         id="path1556" />
      <path
         style="fill:none;stroke:#333333;stroke-width:0.5291667;stroke-linecap:square;stroke-linejoin:miter;stroke-miterlimit:4;stroke-dasharray:none;stroke-opacity:1"
         d="m 124.11854,228.42095 -6.00098,7.21934 c -8.98301,0.60032 -26.167295,2.30614 -44.130903,2.03042 -29.406233,-0.45133 -29.720006,-2.02649 -50.332942,0.33631 -0.655893,0.0957 -0.78622,-0.21833 -0.783228,-0.62121 v -9.34293"
         id="path1558" />
      <path
         id="path1562"
         d="m 22.870486,225.04288 1e-6,3"
         style="fill:none;stroke:#000000;stroke-width:0.5291667;stroke-linecap:butt;stroke-linejoin:miter;stroke-miterlimit:4;stroke-dasharray:none;stroke-opacity:1" />
    </g>
  </g>
</svg>
