<?xml version="1.0" encoding="UTF-8" standalone="no"?>
<!-- Created with Inkscape (http://www.inkscape.org/) -->

<svg
   xmlns:dc="http://purl.org/dc/elements/1.1/"
   xmlns:cc="http://creativecommons.org/ns#"
   xmlns:rdf="http://www.w3.org/1999/02/22-rdf-syntax-ns#"
   xmlns:svg="http://www.w3.org/2000/svg"
   xmlns="http://www.w3.org/2000/svg"
   xmlns:sodipodi="http://sodipodi.sourceforge.net/DTD/sodipodi-0.dtd"
   xmlns:inkscape="http://www.inkscape.org/namespaces/inkscape"
   width="209.46542mm"
   height="29.52039mm"
   viewBox="0 0 209.46542 29.52039"
   version="1.1"
   id="svg4545"
   inkscape:version="0.92.4 5da689c313, 2019-01-14"
   sodipodi:docname="woodlore-skeleton.svg">
  <defs
     id="defs4539" />
  <sodipodi:namedview
     id="base"
     pagecolor="#ffffff"
     bordercolor="#666666"
     borderopacity="1.0"
     inkscape:pageopacity="0.0"
     inkscape:pageshadow="2"
     inkscape:zoom="1.4"
     inkscape:cx="345.37158"
     inkscape:cy="54.364003"
     inkscape:document-units="mm"
     inkscape:current-layer="layer1"
     showgrid="false"
     showborder="false"
     fit-margin-top="0"
     fit-margin-left="0"
     fit-margin-right="0"
     fit-margin-bottom="0"
     showguides="true"
     inkscape:guide-bbox="true"
     inkscape:window-width="1920"
     inkscape:window-height="1051"
     inkscape:window-x="1366"
     inkscape:window-y="0"
     inkscape:window-maximized="1" />
  <metadata
     id="metadata4542">
    <rdf:RDF>
      <cc:Work
         rdf:about="">
        <dc:format>image/svg+xml</dc:format>
        <dc:type
           rdf:resource="http://purl.org/dc/dcmitype/StillImage" />
        <dc:title></dc:title>
      </cc:Work>
    </rdf:RDF>
  </metadata>
  <g
     inkscape:label="Layer 1"
     inkscape:groupmode="layer"
     id="layer1"
     transform="translate(201.49462,-99.299329)">
    <path
       sodipodi:nodetypes="ccccsssscaaaaccccccssssssssssssssscc"
       inkscape:connector-curvature="0"
       id="outline"
       d="m -192.88153,128.4039 c -9.01175,-7.97612 -13.48416,-23.90814 1.06336,-26.48587 21.12181,-2.443031 7.72969,0.57022 52.25469,-1.90774 13.89591,-0.537621 25.68737,-0.504341 38.44341,-0.339751 12.352751,0.17214 24.712471,0.337871 37.048021,1.011551 10.8676,0.59351 21.74268,1.31633 32.54214,2.66855 6.55334,0.82056 13.08689,1.87924 19.53689,3.29952 4.5810701,1.00876 9.1482001,2.15557 13.5769201,3.70165 1.98613,0.69335 5.79904,2.48999 5.79904,2.48999 0,0 -4.6108,2.47715 -7.02303995,3.48108 -4.22010005,1.75635 -8.55514005,3.27604 -12.97930015,4.42525 -3.72805,0.96839 -7.5428,1.62424 -11.36924,2.06529 -5.56951,0.64197 -11.19492,0.65355 -16.79829,0.83759 -6.68198,0.21947 -20.05423,0.31778 -20.05423,0.31778 l -22.76937,-0.38641 -9.2159,-0.11766 -2.71018,0.0214 c -3.17717,0.006 -5.384611,1.64909 -7.103361,3.30095 0,0 -2.12145,-0.71582 -3.78829,-1.31528 -0.92525,-0.33372 -1.85633,-0.62133 -2.78922,-0.86688 -0.93288,-0.24557 -1.86755,-0.44908 -2.79993,-0.61463 -0.9324,-0.16553 -1.86252,-0.2931 -2.7863,-0.38675 -0.92378,-0.0936 -1.84123,-0.15341 -2.74826,-0.18332 -0.90705,-0.0299 -1.8037,-0.03 -2.68588,-0.004 -0.88218,0.0257 -1.74991,0.0772 -2.5991,0.15033 -0.8492,0.0731 -1.68133,0.15804 -2.48796,0.28053 -1.88066,0.28559 -3.16657,0.44935 -4.65341,0.61404 -0.76735,0.085 -1.53498,0.17635 -2.30286,0.26395 -0.76789,0.0876 -1.536,0.1716 -2.30425,0.24237 -0.76827,0.0708 -1.53666,0.12835 -2.30511,0.16306 -3.36987,0.15223 -6.74356,0.235 -10.11684,0.24985 -2.65068,0.0116 -5.30248,-0.0221 -7.95115,-0.12634 -2.59408,-0.10215 -5.17803,-0.0663 -7.77092,-0.1953 -2.76969,-0.13782 -5.54527,-0.47777 -8.31575,-0.59816 -2.10944,-0.0917 -5.09987,0.0888 -7.21125,0.077 -4.20122,0.36007 -9.53395,1.49115 -14.62508,3.86675 z"
       style="fill:none;stroke:#333333;stroke-width:0.52916676;stroke-linecap:butt;stroke-linejoin:miter;stroke-miterlimit:4;stroke-dasharray:none;stroke-opacity:1" />
    <path
       inkscape:connector-curvature="0"
       id="path2997"
       d="m -112.9521,111.54116 c -0.007,0.9128 -0.75255,1.64713 -1.66534,1.64018 -0.9128,-0.007 -1.64713,-0.75255 -1.64019,-1.66534 0.007,-0.9128 0.75255,-1.64714 1.66535,-1.64019 0.9128,0.007 1.64713,0.75256 1.64018,1.66535 z"
       style="display:inline;opacity:0.95999995;fill:none;stroke:#333333;stroke-width:0.52916676;stroke-linecap:butt;stroke-linejoin:miter;stroke-miterlimit:4;stroke-dasharray:none;stroke-dashoffset:0;stroke-opacity:1" />
    <path
       inkscape:connector-curvature="0"
       id="path2997-7"
       d="m -158.70247,112.17274 c -0.007,0.9128 -0.75255,1.64713 -1.66534,1.64018 -0.9128,-0.007 -1.64713,-0.75255 -1.64019,-1.66534 0.007,-0.9128 0.75255,-1.64714 1.66535,-1.64019 0.9128,0.007 1.64713,0.75256 1.64018,1.66535 z"
       style="display:inline;opacity:0.95999995;fill:none;stroke:#333333;stroke-width:0.52899998;stroke-linecap:butt;stroke-linejoin:miter;stroke-miterlimit:4;stroke-dasharray:none;stroke-dashoffset:0;stroke-opacity:1" />
    <path
       inkscape:connector-curvature="0"
       id="thong-tube"
       d="m -185.17496,112.55598 c -0.0148,1.9483 -1.60627,3.51569 -3.55457,3.50085 -1.9483,-0.0148 -3.51568,-1.60627 -3.50085,-3.55456 0.0148,-1.9483 1.60626,-3.51569 3.55456,-3.50086 1.94831,0.0148 3.5157,1.60627 3.50086,3.55457 z"
       style="display:inline;opacity:0.95999995;fill:none;stroke:#333333;stroke-width:0.52916676;stroke-linecap:butt;stroke-linejoin:miter;stroke-miterlimit:4;stroke-dasharray:none;stroke-dashoffset:0;stroke-opacity:1" />
    <path
       sodipodi:nodetypes="caaaccscc"
       inkscape:connector-curvature="0"
       id="bevel"
       d="m -0.51439885,109.54256 c -4.22010005,1.75635 -6.98596005,2.77736 -10.61069015,3.73863 -3.72307,0.98734 -7.54281,1.62423 -11.36924,2.06529 -5.56951,0.64197 -11.19492,0.65355 -16.79829,0.83758 -6.68197,0.21947 -20.05422,0.31779 -20.05422,0.31779 l -22.76937,-0.38642 -9.21591,-0.11768 c -0.70088,-0.009 -2.4937,0.0517 -2.82256,1.39633 l -1.15336,6.34354"
       style="fill:none;stroke:#333333;stroke-width:0.52916676;stroke-linecap:butt;stroke-linejoin:miter;stroke-miterlimit:4;stroke-dasharray:none;stroke-opacity:1" />
    <path
       inkscape:connector-curvature="0"
       id="thong-tube-2"
       d="m -100.69443,111.54116 c -0.0148,1.9483 -1.60627,3.51569 -3.55457,3.50085 -1.9483,-0.0148 -3.51568,-1.60627 -3.50085,-3.55456 0.0148,-1.9483 1.60626,-3.5157 3.55456,-3.50087 1.94831,0.0148 3.5157,1.60628 3.50086,3.55458 z"
       style="display:inline;opacity:0.95999995;fill:none;stroke:#333333;stroke-width:0.52916682;stroke-linecap:butt;stroke-linejoin:miter;stroke-miterlimit:4;stroke-dasharray:none;stroke-dashoffset:0;stroke-opacity:1" />
    <path
       inkscape:connector-curvature="0"
       id="thong-tube-24"
       d="m -167.5241,112.5995 c -0.0234,3.08243 -2.5413,5.56222 -5.62373,5.53874 -3.08243,-0.0234 -5.5622,-2.5413 -5.53874,-5.62371 0.0234,-3.08243 2.54128,-5.56222 5.62371,-5.53876 3.08245,0.0234 5.56224,2.5413 5.53876,5.62373 z"
       style="display:inline;opacity:0.95999995;fill:none;stroke:#333333;stroke-width:0.5291667;stroke-linecap:butt;stroke-linejoin:miter;stroke-miterlimit:4;stroke-dasharray:none;stroke-dashoffset:0;stroke-opacity:1" />
    <path
       style="display:inline;opacity:0.95999995;fill:none;stroke:#333333;stroke-width:0.5291667;stroke-linecap:butt;stroke-linejoin:miter;stroke-miterlimit:4;stroke-dasharray:none;stroke-dashoffset:0;stroke-opacity:1"
       d="m -141.06573,112.5995 c -0.0234,3.08243 -2.5413,5.56222 -5.62373,5.53874 -3.08243,-0.0234 -5.5622,-2.5413 -5.53874,-5.62371 0.0234,-3.08243 2.54128,-5.56222 5.62371,-5.53876 3.08245,0.0234 5.56224,2.5413 5.53876,5.62373 z"
       id="path5133"
       inkscape:connector-curvature="0" />
    <path
       inkscape:connector-curvature="0"
       id="path5135"
       d="m -122.28039,112.07033 c -0.0234,3.08243 -2.5413,5.56222 -5.62373,5.53874 -3.08243,-0.0234 -5.5622,-2.5413 -5.53874,-5.62371 0.0234,-3.08243 2.54128,-5.56222 5.62371,-5.53876 3.08245,0.0234 5.56224,2.5413 5.53876,5.62373 z"
       style="display:inline;opacity:0.95999995;fill:none;stroke:#333333;stroke-width:0.5291667;stroke-linecap:butt;stroke-linejoin:miter;stroke-miterlimit:4;stroke-dasharray:none;stroke-dashoffset:0;stroke-opacity:1" />
  </g>
</svg>
