<?xml version="1.0" encoding="UTF-8" standalone="no"?>
<svg
   xmlns:dc="http://purl.org/dc/elements/1.1/"
   xmlns:cc="http://creativecommons.org/ns#"
   xmlns:rdf="http://www.w3.org/1999/02/22-rdf-syntax-ns#"
   xmlns:svg="http://www.w3.org/2000/svg"
   xmlns="http://www.w3.org/2000/svg"
   xmlns:xlink="http://www.w3.org/1999/xlink"
   id="svg413"
   version="1.1"
   viewBox="0 0 80.962502 20.108334"
   height="76"
   width="306">
  <defs
     id="defs407">
    <linearGradient
       y2="336.53098"
       x2="507.76797"
       y1="336.53098"
       x1="329.17905"
       gradientUnits="userSpaceOnUse"
       id="linearGradient4855"
       xlink:href="#linearGradient4169" />
    <linearGradient
       id="linearGradient4169">
      <stop
         id="stop4171"
         offset="0"
         style="stop-color:#000000;stop-opacity:1;" />
      <stop
         id="stop4173"
         offset="1"
         style="stop-color:#000000;stop-opacity:0;" />
    </linearGradient>
    <radialGradient
       r="89.294472"
       fy="336.53098"
       fx="418.47351"
       cy="336.53098"
       cx="418.47351"
       gradientTransform="matrix(1,0,0,0.24717216,0,253.34989)"
       gradientUnits="userSpaceOnUse"
       id="radialGradient4857"
       xlink:href="#linearGradient4169" />
    <filter
       id="filter1524"
       style="color-interpolation-filters:sRGB;">
      <feFlood
         id="feFlood1514"
         result="flood"
         flood-color="rgb(0,0,0)"
         flood-opacity="1" />
      <feComposite
         id="feComposite1516"
         result="composite1"
         operator="in"
         in2="SourceGraphic"
         in="flood" />
      <feGaussianBlur
         id="feGaussianBlur1518"
         result="blur"
         stdDeviation="1"
         in="composite1" />
      <feOffset
         id="feOffset1520"
         result="offset"
         dy="2"
         dx="2" />
      <feComposite
         id="feComposite1522"
         result="composite2"
         operator="over"
         in2="offset"
         in="SourceGraphic" />
    </filter>
    <filter
       id="filter1665"
       style="color-interpolation-filters:sRGB;">
      <feFlood
         id="feFlood1655"
         result="flood"
         flood-color="rgb(0,0,0)"
         flood-opacity="0.784314" />
      <feComposite
         id="feComposite1657"
         result="composite1"
         operator="in"
         in2="SourceGraphic"
         in="flood" />
      <feGaussianBlur
         id="feGaussianBlur1659"
         result="blur"
         stdDeviation="1"
         in="composite1" />
      <feOffset
         id="feOffset1661"
         result="offset"
         dy="2"
         dx="2" />
      <feComposite
         id="feComposite1663"
         result="composite2"
         operator="over"
         in2="offset"
         in="SourceGraphic" />
    </filter>
  </defs>
  <metadata
     id="metadata410">
    <rdf:RDF>
      <cc:Work
         rdf:about="">
        <dc:format>image/svg+xml</dc:format>
        <dc:type
           rdf:resource="http://purl.org/dc/dcmitype/StillImage" />
        <dc:title></dc:title>
      </cc:Work>
    </rdf:RDF>
  </metadata>
  <g
     transform="translate(0,-276.89166)"
     id="layer1">
    <g
       transform="matrix(0.40410844,0,0,0.40410844,-19.660752,94.743695)"
       id="g4877">
      <g
         id="g507">
        <g
           transform="matrix(0.79796337,0,0,0.79796337,-166.51798,200.42341)"
           id="g4835">
          <flowRoot
             xml:space="preserve"
             id="flowRoot4825"
             style="font-style:normal;font-weight:normal;line-height:0.01%;font-family:sans-serif;letter-spacing:0px;word-spacing:0px;fill:#c4c7c2;fill-opacity:1;stroke:#c4c7c2;stroke-width:0.68932956;stroke-miterlimit:4;stroke-dasharray:none;stroke-opacity:1"><flowRegion
               style="font-family:sans-serif;fill:url(#linearGradient4855);fill-opacity:1;stroke:url(#radialGradient4857);stroke-width:1.09402657"
               id="flowRegion4821"><rect
                 style="font-family:sans-serif;fill:#c4c7c2;fill-opacity:1;stroke:#c4c7c2;stroke-width:1.39757419;stroke-miterlimit:4;stroke-dasharray:none;stroke-opacity:1"
                 id="rect4819"
                 width="183.21518"
                 height="69.622139"
                 x="381.96021"
                 y="137.70532" /></flowRegion><flowPara
               id="flowPara4823"
               style="font-style:normal;font-variant:normal;font-weight:normal;font-stretch:normal;font-size:45.48955154px;line-height:125%;font-family:'Bilbo Swash Caps';-inkscape-font-specification:'Bilbo Swash Caps, Normal';text-align:start;writing-mode:lr-tb;text-anchor:start;fill:#c4c7c2;fill-opacity:1;stroke:#c4c7c2;stroke-width:0.68932956;stroke-miterlimit:4;stroke-dasharray:none;stroke-opacity:1">Bushblade  </flowPara></flowRoot>          <flowRoot
             xml:space="preserve"
             id="flowRoot4833"
             style="font-style:normal;font-weight:normal;line-height:0.01%;font-family:sans-serif;letter-spacing:0px;word-spacing:0px;fill:#c4c7c2;fill-opacity:1;stroke:#c4c7c2;stroke-width:0.7507655;stroke-miterlimit:4;stroke-dasharray:none;stroke-opacity:1"
             transform="translate(245.46707,-207.08127)"><flowRegion
               id="flowRegion4829"
               style="font-family:sans-serif;stroke-width:1.56103277"><rect
                 style="font-family:sans-serif;fill:#c4c7c2;fill-opacity:1;stroke:#c4c7c2;stroke-width:1.87882936;stroke-miterlimit:4;stroke-dasharray:none;stroke-opacity:1"
                 id="rect4827"
                 width="1457.0986"
                 height="147.04665"
                 x="322.11856"
                 y="359.2583" /></flowRegion><flowPara
               id="flowPara4831"
               style="font-style:normal;font-variant:normal;font-weight:normal;font-stretch:normal;font-size:26.52406311px;line-height:125%;font-family:'Bilbo Swash Caps';-inkscape-font-specification:'Bilbo Swash Caps, Normal';text-align:start;writing-mode:lr-tb;text-anchor:start;fill:#c4c7c2;fill-opacity:1;stroke:#c4c7c2;stroke-width:0.7507655;stroke-miterlimit:4;stroke-dasharray:none;stroke-opacity:1"> </flowPara></flowRoot>        </g>
        <g
           style="display:inline;stroke:#c4c7c2;stroke-width:20.45614433;stroke-miterlimit:4;stroke-dasharray:none;stroke-opacity:1"
           id="g4853"
           transform="matrix(0.06628337,0,0,0.06628337,47.067738,297.21078)">
          <circle
             r="160.0455"
             cy="345.43222"
             cx="970.53229"
             transform="matrix(0.92853096,0,0,0.92853096,61.155559,174.47386)"
             id="circle4837"
             style="fill:none;stroke:#c4c7c2;stroke-width:22.03065491;stroke-linecap:butt;stroke-linejoin:miter;stroke-miterlimit:4;stroke-dasharray:none;stroke-opacity:1" />
          <circle
             r="160.0455"
             cy="345.43222"
             cx="970.53229"
             transform="matrix(0.92853096,0,0,0.92853096,61.155569,25.866663)"
             id="circle4839"
             style="fill:none;stroke:#c4c7c2;stroke-width:22.03065491;stroke-linecap:butt;stroke-linejoin:miter;stroke-miterlimit:4;stroke-dasharray:none;stroke-opacity:1" />
          <circle
             r="160.0455"
             cy="345.43222"
             cx="970.53229"
             transform="matrix(0.92853096,0,0,0.92853096,61.155569,323.08107)"
             id="circle4841"
             style="fill:none;stroke:#c4c7c2;stroke-width:22.03065491;stroke-linecap:butt;stroke-linejoin:miter;stroke-miterlimit:4;stroke-dasharray:none;stroke-opacity:1" />
          <circle
             r="160.0455"
             cy="345.43222"
             cx="970.53229"
             transform="matrix(0.92853096,0,0,0.92853096,-67.570641,100.17026)"
             id="circle4843"
             style="fill:none;stroke:#c4c7c2;stroke-width:22.03065491;stroke-linecap:butt;stroke-linejoin:miter;stroke-miterlimit:4;stroke-dasharray:none;stroke-opacity:1" />
          <circle
             r="160.0455"
             cy="345.43222"
             cx="970.53229"
             transform="matrix(0.92853096,0,0,0.92853096,189.88177,100.17027)"
             id="circle4845"
             style="fill:none;stroke:#c4c7c2;stroke-width:22.03065491;stroke-linecap:butt;stroke-linejoin:miter;stroke-miterlimit:4;stroke-dasharray:none;stroke-opacity:1" />
          <circle
             r="160.0455"
             cy="345.43222"
             cx="970.53229"
             transform="matrix(0.92853096,0,0,0.92853096,-67.569911,248.77746)"
             id="circle4847"
             style="fill:none;stroke:#c4c7c2;stroke-width:22.03065491;stroke-linecap:butt;stroke-linejoin:miter;stroke-miterlimit:4;stroke-dasharray:none;stroke-opacity:1" />
          <circle
             r="160.0455"
             cy="345.43222"
             cx="970.53229"
             transform="matrix(0.92853096,0,0,0.92853096,189.88177,248.77748)"
             id="circle4849"
             style="fill:none;stroke:#c4c7c2;stroke-width:22.03065491;stroke-linecap:butt;stroke-linejoin:miter;stroke-miterlimit:4;stroke-dasharray:none;stroke-opacity:1" />
          <circle
             r="243.14604"
             cy="446.99954"
             cx="493.4736"
             transform="matrix(1.2348381,0,0,1.2348381,352.96344,-56.753688)"
             id="circle4851"
             style="fill:none;stroke:#c4c7c2;stroke-width:16.56585121;stroke-miterlimit:4;stroke-dasharray:none;stroke-opacity:1" />
        </g>
        <flowRoot
           transform="matrix(0.6547335,0,0,0.6547335,-45.816521,-13.244782)"
           style="font-style:normal;font-variant:normal;font-weight:normal;font-stretch:normal;font-size:40px;line-height:1.25;font-family:'Bilbo Swash Caps';-inkscape-font-specification:'Bilbo Swash Caps, Normal';font-variant-ligatures:normal;font-variant-caps:normal;font-variant-numeric:normal;font-feature-settings:normal;text-align:start;letter-spacing:0px;word-spacing:0px;writing-mode:lr-tb;text-anchor:start;fill:#000000;fill-opacity:1;stroke:none"
           id="flowRoot509"
           xml:space="preserve"><flowRegion
             style="font-style:normal;font-variant:normal;font-weight:normal;font-stretch:normal;font-size:40px;font-family:'Bilbo Swash Caps';-inkscape-font-specification:'Bilbo Swash Caps, Normal';font-variant-ligatures:normal;font-variant-caps:normal;font-variant-numeric:normal;font-feature-settings:normal;text-align:start;writing-mode:lr-tb;text-anchor:start"
             id="flowRegion511"><rect
               style="font-style:normal;font-variant:normal;font-weight:normal;font-stretch:normal;font-size:40px;font-family:'Bilbo Swash Caps';-inkscape-font-specification:'Bilbo Swash Caps, Normal';font-variant-ligatures:normal;font-variant-caps:normal;font-variant-numeric:normal;font-feature-settings:normal;text-align:start;writing-mode:lr-tb;text-anchor:start"
               y="561.80542"
               x="300.71429"
               height="54.285713"
               width="235.35715"
               id="rect513" /></flowRegion><flowPara
             id="flowPara515">Bushblade</flowPara></flowRoot>        <g
           transform="matrix(1.1746652,0,0,1.1746652,-210.06852,288.45239)"
           id="g5050">
          <g
             id="flowRoot523"
             style="font-style:normal;font-variant:normal;font-weight:normal;font-stretch:normal;font-size:40px;line-height:1.25;font-family:'Bilbo Swash Caps';-inkscape-font-specification:'Bilbo Swash Caps, Normal';font-variant-ligatures:normal;font-variant-caps:normal;font-variant-numeric:normal;font-feature-settings:normal;text-align:start;letter-spacing:0px;word-spacing:0px;writing-mode:lr-tb;text-anchor:start;fill:#c4c7c2;fill-opacity:1;stroke:#c4c7c2;stroke-width:0.47911516;stroke-miterlimit:4;stroke-dasharray:none;stroke-opacity:1"
             transform="matrix(0.9497336,0,0,0.9497336,-17.019171,-393.16533)"
             aria-label="Bushblade" />
          <g
             transform="translate(217.05101,0.28151881)"
             id="g1004">
            <path
               transform="matrix(0.9497336,0,0,0.9497336,-17.01917,-393.16533)"
               d="m 313.31484,596.44469 q 0,0.72 -0.28,0.72 -0.28,0 -0.52,-0.48 -0.2,-0.48 -0.28,-0.92 -0.04,-0.44 -0.04,-0.72 -0.96,-0.44 -2.04,-1.16 -1.08,-0.72 -1.08,-1.36 0,-0.24 0.2,-0.24 0.12,0 0.72,0.4 0.6,0.36 1.28,0.84 0.72,0.44 0.92,0.52 0,-4.4 2.44,-11.76 2.48,-7.36 5.12,-12.76 -4.84,-1.16 -8.24,-1.16 -1.68,0 -3.2,0.32 -1.52,0.28 -2.92,0.96 -1.4,0.64 -2.24,1.96 -0.84,1.32 -0.84,3.12 0,4.08 3.88,7.68 0.16,-0.8 0.4,-0.8 0.28,0 0.68,0.88 0.44,0.84 0.44,1.16 0,0.52 -0.72,0.52 -1.48,0 -3,-1.68 -1.48,-1.72 -2.36,-3.84 -0.84,-2.12 -0.84,-3.6 0,-2.2 0.96,-3.76 1,-1.6 2.68,-2.4 1.68,-0.8 3.48,-1.16 1.8,-0.36 3.84,-0.36 3.68,0 8.52,1.04 0.56,-1.32 1.2,-1.88 0.04,0 0.08,0 0.16,0 0.36,-0.04 0.2,-0.04 0.44,-0.08 0.24,-0.08 0.4,-0.08 1.12,0 1.12,0.48 0,0.04 -0.04,0.08 0,0.04 0,0.08 -0.44,0.6 -1.16,1.96 1.48,0.4 3,1 1.52,0.56 3.24,1.48 1.72,0.92 2.76,2.24 1.08,1.32 1.08,2.84 0,1.4 -0.92,2.6 -0.88,1.16 -2.4,2 -1.48,0.8 -2.8,1.32 -1.28,0.52 -2.68,0.88 1.44,0.08 3.12,0.44 1.68,0.36 3.48,1.04 1.8,0.68 2.96,1.92 1.2,1.24 1.2,2.8 0,1.52 -1.4,3 -4.04,4.24 -11.48,4.24 -4.92,0 -8.56,-1.32 0,0.16 0,0.48 0.04,0.36 0.04,0.56 z m 17.56,-19.88 q 0,-1.24 -0.96,-2.36 -0.96,-1.16 -2.52,-1.96 -1.52,-0.8 -2.8,-1.32 -1.28,-0.52 -2.52,-0.88 h -0.04 q -3.24,5.64 -5.76,13.36 0.64,-0.2 1.76,-0.28 1.16,-0.12 1.52,-0.2 1.44,-0.24 3,-0.64 1.6,-0.44 3.64,-1.2 2.08,-0.76 3.36,-1.92 1.32,-1.2 1.32,-2.6 z m 0.28,16.56 q 1.68,-1.68 1.68,-3.28 0,-1.6 -1.32,-2.76 -1.28,-1.2 -3.28,-1.76 -1.96,-0.56 -3.72,-0.8 -1.76,-0.28 -3.2,-0.28 -0.44,0 -1.68,0.16 -1.24,0.12 -2.4,0.24 -1.12,0.12 -1.36,0.12 -0.04,0 -0.04,0 -2.04,6.32 -2.48,9.68 3.44,1.36 8.52,1.36 6.64,0 9.28,-2.68 z"
               style="font-style:normal;font-variant:normal;font-weight:normal;font-stretch:normal;font-size:40px;line-height:1.25;font-family:'Bilbo Swash Caps';-inkscape-font-specification:'Bilbo Swash Caps, Normal';font-variant-ligatures:normal;font-variant-caps:normal;font-variant-numeric:normal;font-feature-settings:normal;text-align:start;letter-spacing:0px;word-spacing:0px;writing-mode:lr-tb;text-anchor:start;fill:#c4c7c2;fill-opacity:1;stroke:#c4c7c2;stroke-width:0.47911516;stroke-miterlimit:4;stroke-dasharray:none;stroke-opacity:1"
               id="path5233" />
            <path
               transform="matrix(0.9497336,0,0,0.9497336,-17.01917,-393.16533)"
               d="m 349.44984,578.64469 q -0.12,0.36 -0.88,2.4 -0.76,2.04 -1.24,3.44 -0.72,2.04 -1.56,4.96 -0.8,2.92 -0.8,3.56 0,0.12 0.08,0.12 0.32,0 1.6,-1 1.32,-1 1.8,-1 0.32,0 0.32,0.2 0,0.28 -0.92,0.92 -0.88,0.64 -2.04,1.36 -1.16,0.68 -1.28,0.76 -0.28,0.24 -0.84,0.8 -0.52,0.6 -1,0.96 -0.44,0.4 -0.8,0.4 -0.52,0 -0.52,-0.44 0,-0.28 0.64,-0.88 0.64,-0.56 0.84,-1 0.68,-1.64 2.72,-9.56 -1.88,2.8 -5,6.28 -3.08,3.44 -4.64,3.44 -0.56,0 -0.56,-0.72 0,-0.6 0.44,-1.72 0,-0.04 0.96,-2.16 0.96,-2.12 1.52,-3.64 0.6,-1.56 0.6,-2.24 0,-0.2 -0.08,-0.36 -0.08,-0.2 -0.08,-0.32 0,-0.04 0.08,-0.44 0.68,-2.56 1.28,-3.36 0.6,-0.84 2,-0.84 0.56,0 0.68,0.36 -4.8,11.8 -4.8,12.36 0,0.16 0.12,0.16 0.16,0 0.96,-0.64 4,-3.08 7.04,-8.64 0.04,-1.24 0.76,-2.56 0.72,-1.32 2.12,-1.32 0.44,0 0.48,0.36 z"
               style="font-style:normal;font-variant:normal;font-weight:normal;font-stretch:normal;font-size:40px;line-height:1.25;font-family:'Bilbo Swash Caps';-inkscape-font-specification:'Bilbo Swash Caps, Normal';font-variant-ligatures:normal;font-variant-caps:normal;font-variant-numeric:normal;font-feature-settings:normal;text-align:start;letter-spacing:0px;word-spacing:0px;writing-mode:lr-tb;text-anchor:start;fill:#c4c7c2;fill-opacity:1;stroke:#c4c7c2;stroke-width:0.47911516;stroke-miterlimit:4;stroke-dasharray:none;stroke-opacity:1"
               id="path5235" />
            <path
               transform="matrix(0.9497336,0,0,0.9497336,-17.01917,-393.16533)"
               d="m 359.92922,580.28469 q -0.08,0.8 -1.04,2.28 -0.96,1.48 -1.48,1.48 -0.16,0 -0.16,-0.24 0,-0.36 0.44,-1.44 0.44,-1.12 0.44,-1.44 0,-0.6 -0.72,-0.6 -0.12,0 -1.32,0.2 -1,0.24 -2.64,1.28 -1.6,1.04 -1.6,2.28 0,0.44 0.2,0.8 0.52,1.04 1.8,1.76 1.32,0.72 2.24,1.36 0.96,0.64 0.96,1.68 0,1.76 -2.72,3.4 -2.68,1.6 -4.6,1.6 -0.32,0 -0.52,-0.28 -0.2,-0.24 -0.2,-0.52 0,-0.48 0.44,-0.48 1.32,0 3.68,-0.8 2.4,-0.84 2.4,-1.8 0,-0.56 -0.92,-1.32 -0.88,-0.76 -1.96,-1.4 -1.04,-0.64 -1.96,-1.52 -0.88,-0.92 -0.88,-1.76 0,-0.68 0.48,-1.28 0.36,-0.44 0.76,-0.84 0.4,-0.44 0.76,-0.76 0.36,-0.32 0.8,-0.64 0.48,-0.32 0.84,-0.56 0.36,-0.24 0.84,-0.48 0.48,-0.24 0.76,-0.36 0.28,-0.16 0.72,-0.36 0.48,-0.2 0.64,-0.24 0.2,-0.08 0.6,-0.24 0.4,-0.16 0.44,-0.16 0.68,-0.2 1.04,-0.2 1.44,0 1.44,1.6 z"
               style="font-style:normal;font-variant:normal;font-weight:normal;font-stretch:normal;font-size:40px;line-height:1.25;font-family:'Bilbo Swash Caps';-inkscape-font-specification:'Bilbo Swash Caps, Normal';font-variant-ligatures:normal;font-variant-caps:normal;font-variant-numeric:normal;font-feature-settings:normal;text-align:start;letter-spacing:0px;word-spacing:0px;writing-mode:lr-tb;text-anchor:start;fill:#c4c7c2;fill-opacity:1;stroke:#c4c7c2;stroke-width:0.47911516;stroke-miterlimit:4;stroke-dasharray:none;stroke-opacity:1"
               id="path5237" />
            <path
               transform="matrix(0.9497336,0,0,0.9497336,-17.01917,-393.16533)"
               d="m 371.96547,579.84469 q -2.16,3.48 -4.04,7.76 -1.84,4.24 -1.84,6.6 0,0.56 0.32,0.56 0.12,0 0.68,-0.36 0.6,-0.36 0.72,-0.36 0.2,0 0.2,0.24 0,0.48 -0.76,1 -0.76,0.56 -1.48,0.56 -1,0 -1,-1.48 0,-1.72 1.12,-4.84 1.12,-3.16 2.24,-5.72 1.12,-2.6 1.12,-2.92 0,-0.08 -0.04,-0.08 -0.16,0 -0.72,0.6 -2.52,2.84 -4.24,5.56 -1.72,2.68 -2.32,4.12 -0.56,1.44 -1.2,2.32 -0.6,0.84 -1.44,0.84 -0.36,0 -0.36,-0.4 0,-0.36 0.2,-0.8 1.08,-2.8 2.08,-5.8 1,-3 2.12,-6.68 1.16,-3.72 1.88,-5.88 0.12,-0.36 0.12,-0.72 0,-0.16 -0.04,-0.28 -0.04,-0.16 -0.04,-0.24 0,-0.16 0.12,-0.52 0.92,-2.56 1.56,-3.36 0.64,-0.84 1.96,-0.84 0.52,0 0.6,0.36 -4.36,8.8 -7.08,18.72 5.96,-9.32 9,-9.32 0.84,0 0.84,0.56 0,0.36 -0.28,0.8 z"
               style="font-style:normal;font-variant:normal;font-weight:normal;font-stretch:normal;font-size:40px;line-height:1.25;font-family:'Bilbo Swash Caps';-inkscape-font-specification:'Bilbo Swash Caps, Normal';font-variant-ligatures:normal;font-variant-caps:normal;font-variant-numeric:normal;font-feature-settings:normal;text-align:start;letter-spacing:0px;word-spacing:0px;writing-mode:lr-tb;text-anchor:start;fill:#c4c7c2;fill-opacity:1;stroke:#c4c7c2;stroke-width:0.47911516;stroke-miterlimit:4;stroke-dasharray:none;stroke-opacity:1"
               id="path5239" />
            <path
               transform="matrix(0.9497336,0,0,0.9497336,-17.01917,-393.16533)"
               d="m 372.58734,593.56469 q -0.2,0.48 -0.4,0.48 -0.36,0 -0.8,-0.48 -0.44,-0.48 -0.44,-1.12 0,-0.6 0.96,-3.04 0.12,-0.32 0.36,-0.48 0.28,-0.16 0.32,-0.28 4.32,-11.24 6.84,-19.88 l 0.32,-0.24 q 0.28,-0.24 0.68,-0.48 0.44,-0.24 0.72,-0.24 0.4,0 0.4,0.6 -0.44,1.64 -2.8,8.04 -2.36,6.4 -3.88,10.08 1.52,-2.28 4,-5.08 2.52,-2.84 3.76,-2.84 0.8,0 0.8,1.48 v 0.28 q -0.04,0.8 -0.76,3.6 0.88,-0.44 1.2,-0.44 0.12,0 0.12,0.08 0,0.2 -0.52,0.6 -0.48,0.4 -1,0.6 -1.56,5.16 -3.04,6.8 -0.56,0.6 -2.28,1.68 -1.72,1.04 -2.12,1.04 -1.64,0 -2.44,-0.76 z m 7.88,-7.8 q -4.72,2.48 -6.08,3.96 -0.24,0.48 -0.6,1.24 -0.32,0.76 -0.44,1 0.96,1.08 1.96,1.08 1.64,0 3.04,-2.44 1.44,-2.44 2.12,-4.84 z m 0.32,-0.88 q 0.64,-1.68 0.72,-3.48 0,-0.84 -0.4,-0.84 -1.32,0 -6.44,8.16 2.4,-1.96 6.12,-3.84 z"
               style="font-style:normal;font-variant:normal;font-weight:normal;font-stretch:normal;font-size:40px;line-height:1.25;font-family:'Bilbo Swash Caps';-inkscape-font-specification:'Bilbo Swash Caps, Normal';font-variant-ligatures:normal;font-variant-caps:normal;font-variant-numeric:normal;font-feature-settings:normal;text-align:start;letter-spacing:0px;word-spacing:0px;writing-mode:lr-tb;text-anchor:start;fill:#c4c7c2;fill-opacity:1;stroke:#c4c7c2;stroke-width:0.47911516;stroke-miterlimit:4;stroke-dasharray:none;stroke-opacity:1"
               id="path5241" />
            <path
               transform="matrix(0.9497336,0,0,0.9497336,-17.01917,-393.16533)"
               d="m 393.50609,569.08469 q -2.2,4.56 -4.48,11.04 -2.28,6.44 -3.36,11.28 -0.04,0.12 -0.04,0.32 0,0.48 0.4,0.48 0.24,0 1.28,-0.6 1.08,-0.6 1.36,-0.6 0.24,0 0.36,0.16 0,0.48 -2,1.8 -2,1.28 -2.84,1.28 -0.76,0 -0.76,-0.72 0,-0.4 0.16,-0.84 1.04,-2.84 1.92,-5.64 0.92,-2.8 2.08,-6.64 1.16,-3.88 1.72,-5.72 0.12,-0.36 0.12,-0.72 0,-0.16 -0.08,-0.28 -0.04,-0.16 -0.04,-0.28 0,-0.12 0.12,-0.48 0.8,-2.52 1.48,-3.36 0.68,-0.84 2,-0.84 0.56,0 0.6,0.36 z"
               style="font-style:normal;font-variant:normal;font-weight:normal;font-stretch:normal;font-size:40px;line-height:1.25;font-family:'Bilbo Swash Caps';-inkscape-font-specification:'Bilbo Swash Caps, Normal';font-variant-ligatures:normal;font-variant-caps:normal;font-variant-numeric:normal;font-feature-settings:normal;text-align:start;letter-spacing:0px;word-spacing:0px;writing-mode:lr-tb;text-anchor:start;fill:#c4c7c2;fill-opacity:1;stroke:#c4c7c2;stroke-width:0.47911516;stroke-miterlimit:4;stroke-dasharray:none;stroke-opacity:1"
               id="path5243" />
            <path
               transform="matrix(0.9497336,0,0,0.9497336,-17.01917,-393.16533)"
               d="m 403.21359,590.80469 q -0.04,0.04 -0.36,0.36 -0.32,0.28 -0.52,0.44 -0.2,0.16 -0.6,0.52 -0.36,0.32 -0.64,0.52 -0.28,0.2 -0.68,0.48 -0.4,0.28 -0.72,0.44 -0.28,0.12 -0.6,0.24 -0.32,0.12 -0.6,0.12 -0.84,0 -1,-1 0,-1.68 1.32,-6.2 -5.36,7.4 -7.68,7.4 -0.96,0 -0.96,-1.44 0,-1.84 1.08,-4.96 1.12,-3.16 2.72,-5.68 1.6,-2.56 2.8,-2.56 h 0.12 l 0.44,-0.32 q 0.36,-0.4 1.12,-0.4 0.6,0 1.68,0.32 1.08,0.32 1.2,0.32 0.16,0 0.4,-0.32 0.28,-0.32 0.64,-0.32 1,0 1,0.88 0,0.36 -0.16,0.8 -0.12,0.44 -0.4,1.04 -0.24,0.56 -0.28,0.68 -0.04,0.08 -0.4,0.24 -0.32,0.16 -0.36,0.28 -0.88,2.48 -1.56,5.32 -0.68,2.8 -0.68,3.44 0,1 0.56,1 0.56,0 1.36,-0.68 0.84,-0.68 1.44,-1.36 0.6,-0.68 0.64,-0.68 0.08,0 0.08,0.16 0,0.6 -0.4,0.92 z m -2.64,-10.64 q -0.24,0 -0.84,-0.08 -0.56,-0.08 -0.96,-0.08 -0.56,0 -1.2,0.16 -1,0.28 -3.28,4.76 -2.28,4.44 -2.28,6.64 0,0.68 0.4,0.68 0.84,0 2.96,-2.44 2.16,-2.44 2.84,-3.48 1,-1.6 1.84,-3.44 0.84,-1.88 0.84,-2.48 0,-0.24 -0.2,-0.24 z"
               style="font-style:normal;font-variant:normal;font-weight:normal;font-stretch:normal;font-size:40px;line-height:1.25;font-family:'Bilbo Swash Caps';-inkscape-font-specification:'Bilbo Swash Caps, Normal';font-variant-ligatures:normal;font-variant-caps:normal;font-variant-numeric:normal;font-feature-settings:normal;text-align:start;letter-spacing:0px;word-spacing:0px;writing-mode:lr-tb;text-anchor:start;fill:#c4c7c2;fill-opacity:1;stroke:#c4c7c2;stroke-width:0.47911516;stroke-miterlimit:4;stroke-dasharray:none;stroke-opacity:1"
               id="path5245" />
            <path
               transform="matrix(0.9497336,0,0,0.9497336,-17.01917,-393.16533)"
               d="m 420.09859,568.08469 q 0.12,0.08 0.12,0.36 0,0.64 -0.64,2.4 -0.6,1.72 -1.72,4.52 -1.08,2.76 -1.68,4.52 0.04,-0.04 0.08,-0.04 0.16,0 0.32,0.28 0.2,0.28 0.2,0.52 0,0.24 -0.4,0.24 -0.52,0 -0.56,-0.12 -0.8,1.8 -2.04,5.84 -1.2,4.04 -1.2,4.96 0,0.92 0.52,0.92 0.6,0 1.4,-0.68 0.8,-0.72 1.4,-1.44 0.64,-0.72 0.76,-0.72 0.12,0 0.12,0.2 0,0.12 -0.08,0.32 -0.04,0.2 -0.12,0.36 -0.04,0.12 -0.08,0.12 -0.92,0.92 -2.56,2.12 -1.64,1.16 -2.56,1.16 -0.76,0 -0.76,-0.84 0,-2.16 1.52,-6.6 -1.72,2.44 -4.2,5.12 -2.44,2.68 -3.84,2.68 -0.84,0 -0.84,-1.2 0,-1.72 1.2,-4.96 1.2,-3.28 2.84,-5.92 1.68,-2.68 2.8,-2.68 h 0.16 q 0.28,0 0.64,-0.28 0.4,-0.32 0.84,-0.32 0.6,0 1.68,0.32 1.12,0.32 1.2,0.32 0.04,0 0.04,-0.04 2.88,-7.76 2.96,-8 -0.44,0 -0.44,-0.48 0,-1.12 1.2,-2.92 0.16,-0.32 0.64,-0.32 0.52,0 1.08,0.28 z m -5.72,12.36 q 0,-0.44 -2.36,-0.44 -0.68,0 -1,0.08 -0.88,0.24 -3.4,4.84 -2.48,4.6 -2.48,6.72 0,0.64 0.4,0.64 0.4,0 1.16,-0.64 0.76,-0.64 1.4,-1.36 0.64,-0.72 1.4,-1.56 0.76,-0.88 0.8,-0.96 1.08,-1.2 1.96,-2.8 0.92,-1.64 1.48,-3.04 0.6,-1.4 0.64,-1.48 z"
               style="font-style:normal;font-variant:normal;font-weight:normal;font-stretch:normal;font-size:40px;line-height:1.25;font-family:'Bilbo Swash Caps';-inkscape-font-specification:'Bilbo Swash Caps, Normal';font-variant-ligatures:normal;font-variant-caps:normal;font-variant-numeric:normal;font-feature-settings:normal;text-align:start;letter-spacing:0px;word-spacing:0px;writing-mode:lr-tb;text-anchor:start;fill:#c4c7c2;fill-opacity:1;stroke:#c4c7c2;stroke-width:0.47911516;stroke-miterlimit:4;stroke-dasharray:none;stroke-opacity:1"
               id="path5247" />
            <path
               transform="matrix(0.9497336,0,0,0.9497336,-17.01917,-393.16533)"
               d="m 427.17234,581.56469 q 0.24,1.24 0.24,2 0,0.88 -0.6,1.52 -0.6,0.6 -1.56,0.88 -0.96,0.24 -1.72,0.36 -0.76,0.08 -1.44,0.08 -0.4,0 -0.92,0 -0.48,-0.04 -0.52,-0.04 -1.32,3.36 -1.32,5.28 0,1.6 1.2,1.6 0.84,0 1.96,-1.04 1.12,-1.08 1.96,-2.12 0.84,-1.08 1,-1.08 0.28,0 0.28,0.32 0,1.12 -2.2,3.12 -2.2,1.96 -3.44,1.96 -1,0 -1.84,-0.6 -0.8,-0.64 -0.8,-2.08 0,-0.44 0.12,-1.04 0.28,-1.52 0.72,-2.96 0.48,-1.44 0.52,-1.76 -0.6,-0.16 -0.6,-0.64 0,-0.44 0.68,-0.44 h 0.28 q 1.6,-3.16 1.84,-3.64 1.12,-2.12 4.28,-2.12 1.36,0 1.88,2.44 z m -1.44,1.92 q 0,-1 -0.2,-1.72 -0.2,-0.72 -0.48,-1 -0.24,-0.28 -0.52,-0.28 -0.8,0 -1.92,1.72 -1.08,1.72 -1.6,3.04 0.08,0 0.64,0.04 0.56,0.04 0.96,0.04 1.64,0 2.36,-0.36 0.72,-0.36 0.76,-1.48 z"
               style="font-style:normal;font-variant:normal;font-weight:normal;font-stretch:normal;font-size:40px;line-height:1.25;font-family:'Bilbo Swash Caps';-inkscape-font-specification:'Bilbo Swash Caps, Normal';font-variant-ligatures:normal;font-variant-caps:normal;font-variant-numeric:normal;font-feature-settings:normal;text-align:start;letter-spacing:0px;word-spacing:0px;writing-mode:lr-tb;text-anchor:start;fill:#c4c7c2;fill-opacity:1;stroke:#c4c7c2;stroke-width:0.47911516;stroke-miterlimit:4;stroke-dasharray:none;stroke-opacity:1"
               id="path5249" />
            <g
               transform="matrix(0.06628337,0,0,0.06628337,178.71594,126.5124)"
               id="g541"
               style="display:inline;fill:none;stroke:#c4c7c2;stroke-width:20.45614433;stroke-miterlimit:4;stroke-dasharray:none;stroke-opacity:1">
              <circle
                 style="fill:none;stroke:#c4c7c2;stroke-width:22.03065491;stroke-linecap:butt;stroke-linejoin:miter;stroke-miterlimit:4;stroke-dasharray:none;stroke-opacity:1"
                 id="circle525"
                 transform="matrix(0.92853096,0,0,0.92853096,61.155559,174.47386)"
                 cx="970.53229"
                 cy="345.43222"
                 r="160.0455" />
              <circle
                 style="fill:none;stroke:#c4c7c2;stroke-width:22.03065491;stroke-linecap:butt;stroke-linejoin:miter;stroke-miterlimit:4;stroke-dasharray:none;stroke-opacity:1"
                 id="circle527"
                 transform="matrix(0.92853096,0,0,0.92853096,61.155569,25.866663)"
                 cx="970.53229"
                 cy="345.43222"
                 r="160.0455" />
              <circle
                 style="fill:none;stroke:#c4c7c2;stroke-width:22.03065491;stroke-linecap:butt;stroke-linejoin:miter;stroke-miterlimit:4;stroke-dasharray:none;stroke-opacity:1"
                 id="circle529"
                 transform="matrix(0.92853096,0,0,0.92853096,61.155569,323.08107)"
                 cx="970.53229"
                 cy="345.43222"
                 r="160.0455" />
              <circle
                 style="fill:none;stroke:#c4c7c2;stroke-width:22.03065491;stroke-linecap:butt;stroke-linejoin:miter;stroke-miterlimit:4;stroke-dasharray:none;stroke-opacity:1"
                 id="circle531"
                 transform="matrix(0.92853096,0,0,0.92853096,-67.570641,100.17026)"
                 cx="970.53229"
                 cy="345.43222"
                 r="160.0455" />
              <circle
                 style="fill:none;stroke:#c4c7c2;stroke-width:22.03065491;stroke-linecap:butt;stroke-linejoin:miter;stroke-miterlimit:4;stroke-dasharray:none;stroke-opacity:1"
                 id="circle533"
                 transform="matrix(0.92853096,0,0,0.92853096,189.88177,100.17027)"
                 cx="970.53229"
                 cy="345.43222"
                 r="160.0455" />
              <circle
                 style="fill:none;stroke:#c4c7c2;stroke-width:22.03065491;stroke-linecap:butt;stroke-linejoin:miter;stroke-miterlimit:4;stroke-dasharray:none;stroke-opacity:1"
                 id="circle535"
                 transform="matrix(0.92853096,0,0,0.92853096,-67.569911,248.77746)"
                 cx="970.53229"
                 cy="345.43222"
                 r="160.0455" />
              <circle
                 style="fill:none;stroke:#c4c7c2;stroke-width:22.03065491;stroke-linecap:butt;stroke-linejoin:miter;stroke-miterlimit:4;stroke-dasharray:none;stroke-opacity:1"
                 id="circle537"
                 transform="matrix(0.92853096,0,0,0.92853096,189.88177,248.77748)"
                 cx="970.53229"
                 cy="345.43222"
                 r="160.0455" />
              <circle
                 style="fill:none;stroke:#c4c7c2;stroke-width:16.56585121;stroke-miterlimit:4;stroke-dasharray:none;stroke-opacity:1"
                 id="circle539"
                 transform="matrix(1.2348381,0,0,1.2348381,352.96344,-56.753688)"
                 cx="493.4736"
                 cy="446.99954"
                 r="243.14604" />
            </g>
          </g>
          <g
             style="filter:url(#filter1524)"
             transform="matrix(0.91818349,0,0,0.91818349,-58.820453,-36.781105)"
             id="g1080">
            <path
               id="path1044"
               style="font-style:normal;font-variant:normal;font-weight:normal;font-stretch:normal;font-size:40px;line-height:1.25;font-family:'Bilbo Swash Caps';-inkscape-font-specification:'Bilbo Swash Caps, Normal';font-variant-ligatures:normal;font-variant-caps:normal;font-variant-numeric:normal;font-feature-settings:normal;text-align:start;letter-spacing:0px;word-spacing:0px;writing-mode:lr-tb;text-anchor:start;fill:#c4c7c2;fill-opacity:1;stroke:#c4c7c2;stroke-width:0.47911516;stroke-miterlimit:4;stroke-dasharray:none;stroke-opacity:1"
               d="m 313.31484,596.44469 q 0,0.72 -0.28,0.72 -0.28,0 -0.52,-0.48 -0.2,-0.48 -0.28,-0.92 -0.04,-0.44 -0.04,-0.72 -0.96,-0.44 -2.04,-1.16 -1.08,-0.72 -1.08,-1.36 0,-0.24 0.2,-0.24 0.12,0 0.72,0.4 0.6,0.36 1.28,0.84 0.72,0.44 0.92,0.52 0,-4.4 2.44,-11.76 2.48,-7.36 5.12,-12.76 -4.84,-1.16 -8.24,-1.16 -1.68,0 -3.2,0.32 -1.52,0.28 -2.92,0.96 -1.4,0.64 -2.24,1.96 -0.84,1.32 -0.84,3.12 0,4.08 3.88,7.68 0.16,-0.8 0.4,-0.8 0.28,0 0.68,0.88 0.44,0.84 0.44,1.16 0,0.52 -0.72,0.52 -1.48,0 -3,-1.68 -1.48,-1.72 -2.36,-3.84 -0.84,-2.12 -0.84,-3.6 0,-2.2 0.96,-3.76 1,-1.6 2.68,-2.4 1.68,-0.8 3.48,-1.16 1.8,-0.36 3.84,-0.36 3.68,0 8.52,1.04 0.56,-1.32 1.2,-1.88 0.04,0 0.08,0 0.16,0 0.36,-0.04 0.2,-0.04 0.44,-0.08 0.24,-0.08 0.4,-0.08 1.12,0 1.12,0.48 0,0.04 -0.04,0.08 0,0.04 0,0.08 -0.44,0.6 -1.16,1.96 1.48,0.4 3,1 1.52,0.56 3.24,1.48 1.72,0.92 2.76,2.24 1.08,1.32 1.08,2.84 0,1.4 -0.92,2.6 -0.88,1.16 -2.4,2 -1.48,0.8 -2.8,1.32 -1.28,0.52 -2.68,0.88 1.44,0.08 3.12,0.44 1.68,0.36 3.48,1.04 1.8,0.68 2.96,1.92 1.2,1.24 1.2,2.8 0,1.52 -1.4,3 -4.04,4.24 -11.48,4.24 -4.92,0 -8.56,-1.32 0,0.16 0,0.48 0.04,0.36 0.04,0.56 z m 17.56,-19.88 q 0,-1.24 -0.96,-2.36 -0.96,-1.16 -2.52,-1.96 -1.52,-0.8 -2.8,-1.32 -1.28,-0.52 -2.52,-0.88 h -0.04 q -3.24,5.64 -5.76,13.36 0.64,-0.2 1.76,-0.28 1.16,-0.12 1.52,-0.2 1.44,-0.24 3,-0.64 1.6,-0.44 3.64,-1.2 2.08,-0.76 3.36,-1.92 1.32,-1.2 1.32,-2.6 z m 0.28,16.56 q 1.68,-1.68 1.68,-3.28 0,-1.6 -1.32,-2.76 -1.28,-1.2 -3.28,-1.76 -1.96,-0.56 -3.72,-0.8 -1.76,-0.28 -3.2,-0.28 -0.44,0 -1.68,0.16 -1.24,0.12 -2.4,0.24 -1.12,0.12 -1.36,0.12 -0.04,0 -0.04,0 -2.04,6.32 -2.48,9.68 3.44,1.36 8.52,1.36 6.64,0 9.28,-2.68 z"
               transform="matrix(0.9497336,0,0,0.9497336,-17.01917,-393.16533)" />
            <path
               id="path1046"
               style="font-style:normal;font-variant:normal;font-weight:normal;font-stretch:normal;font-size:40px;line-height:1.25;font-family:'Bilbo Swash Caps';-inkscape-font-specification:'Bilbo Swash Caps, Normal';font-variant-ligatures:normal;font-variant-caps:normal;font-variant-numeric:normal;font-feature-settings:normal;text-align:start;letter-spacing:0px;word-spacing:0px;writing-mode:lr-tb;text-anchor:start;fill:#c4c7c2;fill-opacity:1;stroke:#c4c7c2;stroke-width:0.47911516;stroke-miterlimit:4;stroke-dasharray:none;stroke-opacity:1"
               d="m 349.44984,578.64469 q -0.12,0.36 -0.88,2.4 -0.76,2.04 -1.24,3.44 -0.72,2.04 -1.56,4.96 -0.8,2.92 -0.8,3.56 0,0.12 0.08,0.12 0.32,0 1.6,-1 1.32,-1 1.8,-1 0.32,0 0.32,0.2 0,0.28 -0.92,0.92 -0.88,0.64 -2.04,1.36 -1.16,0.68 -1.28,0.76 -0.28,0.24 -0.84,0.8 -0.52,0.6 -1,0.96 -0.44,0.4 -0.8,0.4 -0.52,0 -0.52,-0.44 0,-0.28 0.64,-0.88 0.64,-0.56 0.84,-1 0.68,-1.64 2.72,-9.56 -1.88,2.8 -5,6.28 -3.08,3.44 -4.64,3.44 -0.56,0 -0.56,-0.72 0,-0.6 0.44,-1.72 0,-0.04 0.96,-2.16 0.96,-2.12 1.52,-3.64 0.6,-1.56 0.6,-2.24 0,-0.2 -0.08,-0.36 -0.08,-0.2 -0.08,-0.32 0,-0.04 0.08,-0.44 0.68,-2.56 1.28,-3.36 0.6,-0.84 2,-0.84 0.56,0 0.68,0.36 -4.8,11.8 -4.8,12.36 0,0.16 0.12,0.16 0.16,0 0.96,-0.64 4,-3.08 7.04,-8.64 0.04,-1.24 0.76,-2.56 0.72,-1.32 2.12,-1.32 0.44,0 0.48,0.36 z"
               transform="matrix(0.9497336,0,0,0.9497336,-17.01917,-393.16533)" />
            <path
               id="path1048"
               style="font-style:normal;font-variant:normal;font-weight:normal;font-stretch:normal;font-size:40px;line-height:1.25;font-family:'Bilbo Swash Caps';-inkscape-font-specification:'Bilbo Swash Caps, Normal';font-variant-ligatures:normal;font-variant-caps:normal;font-variant-numeric:normal;font-feature-settings:normal;text-align:start;letter-spacing:0px;word-spacing:0px;writing-mode:lr-tb;text-anchor:start;fill:#c4c7c2;fill-opacity:1;stroke:#c4c7c2;stroke-width:0.47911516;stroke-miterlimit:4;stroke-dasharray:none;stroke-opacity:1"
               d="m 359.92922,580.28469 q -0.08,0.8 -1.04,2.28 -0.96,1.48 -1.48,1.48 -0.16,0 -0.16,-0.24 0,-0.36 0.44,-1.44 0.44,-1.12 0.44,-1.44 0,-0.6 -0.72,-0.6 -0.12,0 -1.32,0.2 -1,0.24 -2.64,1.28 -1.6,1.04 -1.6,2.28 0,0.44 0.2,0.8 0.52,1.04 1.8,1.76 1.32,0.72 2.24,1.36 0.96,0.64 0.96,1.68 0,1.76 -2.72,3.4 -2.68,1.6 -4.6,1.6 -0.32,0 -0.52,-0.28 -0.2,-0.24 -0.2,-0.52 0,-0.48 0.44,-0.48 1.32,0 3.68,-0.8 2.4,-0.84 2.4,-1.8 0,-0.56 -0.92,-1.32 -0.88,-0.76 -1.96,-1.4 -1.04,-0.64 -1.96,-1.52 -0.88,-0.92 -0.88,-1.76 0,-0.68 0.48,-1.28 0.36,-0.44 0.76,-0.84 0.4,-0.44 0.76,-0.76 0.36,-0.32 0.8,-0.64 0.48,-0.32 0.84,-0.56 0.36,-0.24 0.84,-0.48 0.48,-0.24 0.76,-0.36 0.28,-0.16 0.72,-0.36 0.48,-0.2 0.64,-0.24 0.2,-0.08 0.6,-0.24 0.4,-0.16 0.44,-0.16 0.68,-0.2 1.04,-0.2 1.44,0 1.44,1.6 z"
               transform="matrix(0.9497336,0,0,0.9497336,-17.01917,-393.16533)" />
            <path
               id="path1050"
               style="font-style:normal;font-variant:normal;font-weight:normal;font-stretch:normal;font-size:40px;line-height:1.25;font-family:'Bilbo Swash Caps';-inkscape-font-specification:'Bilbo Swash Caps, Normal';font-variant-ligatures:normal;font-variant-caps:normal;font-variant-numeric:normal;font-feature-settings:normal;text-align:start;letter-spacing:0px;word-spacing:0px;writing-mode:lr-tb;text-anchor:start;fill:#c4c7c2;fill-opacity:1;stroke:#c4c7c2;stroke-width:0.47911516;stroke-miterlimit:4;stroke-dasharray:none;stroke-opacity:1"
               d="m 371.96547,579.84469 q -2.16,3.48 -4.04,7.76 -1.84,4.24 -1.84,6.6 0,0.56 0.32,0.56 0.12,0 0.68,-0.36 0.6,-0.36 0.72,-0.36 0.2,0 0.2,0.24 0,0.48 -0.76,1 -0.76,0.56 -1.48,0.56 -1,0 -1,-1.48 0,-1.72 1.12,-4.84 1.12,-3.16 2.24,-5.72 1.12,-2.6 1.12,-2.92 0,-0.08 -0.04,-0.08 -0.16,0 -0.72,0.6 -2.52,2.84 -4.24,5.56 -1.72,2.68 -2.32,4.12 -0.56,1.44 -1.2,2.32 -0.6,0.84 -1.44,0.84 -0.36,0 -0.36,-0.4 0,-0.36 0.2,-0.8 1.08,-2.8 2.08,-5.8 1,-3 2.12,-6.68 1.16,-3.72 1.88,-5.88 0.12,-0.36 0.12,-0.72 0,-0.16 -0.04,-0.28 -0.04,-0.16 -0.04,-0.24 0,-0.16 0.12,-0.52 0.92,-2.56 1.56,-3.36 0.64,-0.84 1.96,-0.84 0.52,0 0.6,0.36 -4.36,8.8 -7.08,18.72 5.96,-9.32 9,-9.32 0.84,0 0.84,0.56 0,0.36 -0.28,0.8 z"
               transform="matrix(0.9497336,0,0,0.9497336,-17.01917,-393.16533)" />
            <path
               id="path1052"
               style="font-style:normal;font-variant:normal;font-weight:normal;font-stretch:normal;font-size:40px;line-height:1.25;font-family:'Bilbo Swash Caps';-inkscape-font-specification:'Bilbo Swash Caps, Normal';font-variant-ligatures:normal;font-variant-caps:normal;font-variant-numeric:normal;font-feature-settings:normal;text-align:start;letter-spacing:0px;word-spacing:0px;writing-mode:lr-tb;text-anchor:start;fill:#c4c7c2;fill-opacity:1;stroke:#c4c7c2;stroke-width:0.47911516;stroke-miterlimit:4;stroke-dasharray:none;stroke-opacity:1"
               d="m 372.58734,593.56469 q -0.2,0.48 -0.4,0.48 -0.36,0 -0.8,-0.48 -0.44,-0.48 -0.44,-1.12 0,-0.6 0.96,-3.04 0.12,-0.32 0.36,-0.48 0.28,-0.16 0.32,-0.28 4.32,-11.24 6.84,-19.88 l 0.32,-0.24 q 0.28,-0.24 0.68,-0.48 0.44,-0.24 0.72,-0.24 0.4,0 0.4,0.6 -0.44,1.64 -2.8,8.04 -2.36,6.4 -3.88,10.08 1.52,-2.28 4,-5.08 2.52,-2.84 3.76,-2.84 0.8,0 0.8,1.48 v 0.28 q -0.04,0.8 -0.76,3.6 0.88,-0.44 1.2,-0.44 0.12,0 0.12,0.08 0,0.2 -0.52,0.6 -0.48,0.4 -1,0.6 -1.56,5.16 -3.04,6.8 -0.56,0.6 -2.28,1.68 -1.72,1.04 -2.12,1.04 -1.64,0 -2.44,-0.76 z m 7.88,-7.8 q -4.72,2.48 -6.08,3.96 -0.24,0.48 -0.6,1.24 -0.32,0.76 -0.44,1 0.96,1.08 1.96,1.08 1.64,0 3.04,-2.44 1.44,-2.44 2.12,-4.84 z m 0.32,-0.88 q 0.64,-1.68 0.72,-3.48 0,-0.84 -0.4,-0.84 -1.32,0 -6.44,8.16 2.4,-1.96 6.12,-3.84 z"
               transform="matrix(0.9497336,0,0,0.9497336,-17.01917,-393.16533)" />
            <path
               id="path1054"
               style="font-style:normal;font-variant:normal;font-weight:normal;font-stretch:normal;font-size:40px;line-height:1.25;font-family:'Bilbo Swash Caps';-inkscape-font-specification:'Bilbo Swash Caps, Normal';font-variant-ligatures:normal;font-variant-caps:normal;font-variant-numeric:normal;font-feature-settings:normal;text-align:start;letter-spacing:0px;word-spacing:0px;writing-mode:lr-tb;text-anchor:start;fill:#c4c7c2;fill-opacity:1;stroke:#c4c7c2;stroke-width:0.47911516;stroke-miterlimit:4;stroke-dasharray:none;stroke-opacity:1"
               d="m 393.50609,569.08469 q -2.2,4.56 -4.48,11.04 -2.28,6.44 -3.36,11.28 -0.04,0.12 -0.04,0.32 0,0.48 0.4,0.48 0.24,0 1.28,-0.6 1.08,-0.6 1.36,-0.6 0.24,0 0.36,0.16 0,0.48 -2,1.8 -2,1.28 -2.84,1.28 -0.76,0 -0.76,-0.72 0,-0.4 0.16,-0.84 1.04,-2.84 1.92,-5.64 0.92,-2.8 2.08,-6.64 1.16,-3.88 1.72,-5.72 0.12,-0.36 0.12,-0.72 0,-0.16 -0.08,-0.28 -0.04,-0.16 -0.04,-0.28 0,-0.12 0.12,-0.48 0.8,-2.52 1.48,-3.36 0.68,-0.84 2,-0.84 0.56,0 0.6,0.36 z"
               transform="matrix(0.9497336,0,0,0.9497336,-17.01917,-393.16533)" />
            <path
               id="path1056"
               style="font-style:normal;font-variant:normal;font-weight:normal;font-stretch:normal;font-size:40px;line-height:1.25;font-family:'Bilbo Swash Caps';-inkscape-font-specification:'Bilbo Swash Caps, Normal';font-variant-ligatures:normal;font-variant-caps:normal;font-variant-numeric:normal;font-feature-settings:normal;text-align:start;letter-spacing:0px;word-spacing:0px;writing-mode:lr-tb;text-anchor:start;fill:#c4c7c2;fill-opacity:1;stroke:#c4c7c2;stroke-width:0.47911516;stroke-miterlimit:4;stroke-dasharray:none;stroke-opacity:1"
               d="m 403.21359,590.80469 q -0.04,0.04 -0.36,0.36 -0.32,0.28 -0.52,0.44 -0.2,0.16 -0.6,0.52 -0.36,0.32 -0.64,0.52 -0.28,0.2 -0.68,0.48 -0.4,0.28 -0.72,0.44 -0.28,0.12 -0.6,0.24 -0.32,0.12 -0.6,0.12 -0.84,0 -1,-1 0,-1.68 1.32,-6.2 -5.36,7.4 -7.68,7.4 -0.96,0 -0.96,-1.44 0,-1.84 1.08,-4.96 1.12,-3.16 2.72,-5.68 1.6,-2.56 2.8,-2.56 h 0.12 l 0.44,-0.32 q 0.36,-0.4 1.12,-0.4 0.6,0 1.68,0.32 1.08,0.32 1.2,0.32 0.16,0 0.4,-0.32 0.28,-0.32 0.64,-0.32 1,0 1,0.88 0,0.36 -0.16,0.8 -0.12,0.44 -0.4,1.04 -0.24,0.56 -0.28,0.68 -0.04,0.08 -0.4,0.24 -0.32,0.16 -0.36,0.28 -0.88,2.48 -1.56,5.32 -0.68,2.8 -0.68,3.44 0,1 0.56,1 0.56,0 1.36,-0.68 0.84,-0.68 1.44,-1.36 0.6,-0.68 0.64,-0.68 0.08,0 0.08,0.16 0,0.6 -0.4,0.92 z m -2.64,-10.64 q -0.24,0 -0.84,-0.08 -0.56,-0.08 -0.96,-0.08 -0.56,0 -1.2,0.16 -1,0.28 -3.28,4.76 -2.28,4.44 -2.28,6.64 0,0.68 0.4,0.68 0.84,0 2.96,-2.44 2.16,-2.44 2.84,-3.48 1,-1.6 1.84,-3.44 0.84,-1.88 0.84,-2.48 0,-0.24 -0.2,-0.24 z"
               transform="matrix(0.9497336,0,0,0.9497336,-17.01917,-393.16533)" />
            <path
               id="path1058"
               style="font-style:normal;font-variant:normal;font-weight:normal;font-stretch:normal;font-size:40px;line-height:1.25;font-family:'Bilbo Swash Caps';-inkscape-font-specification:'Bilbo Swash Caps, Normal';font-variant-ligatures:normal;font-variant-caps:normal;font-variant-numeric:normal;font-feature-settings:normal;text-align:start;letter-spacing:0px;word-spacing:0px;writing-mode:lr-tb;text-anchor:start;fill:#c4c7c2;fill-opacity:1;stroke:#c4c7c2;stroke-width:0.47911516;stroke-miterlimit:4;stroke-dasharray:none;stroke-opacity:1"
               d="m 420.09859,568.08469 q 0.12,0.08 0.12,0.36 0,0.64 -0.64,2.4 -0.6,1.72 -1.72,4.52 -1.08,2.76 -1.68,4.52 0.04,-0.04 0.08,-0.04 0.16,0 0.32,0.28 0.2,0.28 0.2,0.52 0,0.24 -0.4,0.24 -0.52,0 -0.56,-0.12 -0.8,1.8 -2.04,5.84 -1.2,4.04 -1.2,4.96 0,0.92 0.52,0.92 0.6,0 1.4,-0.68 0.8,-0.72 1.4,-1.44 0.64,-0.72 0.76,-0.72 0.12,0 0.12,0.2 0,0.12 -0.08,0.32 -0.04,0.2 -0.12,0.36 -0.04,0.12 -0.08,0.12 -0.92,0.92 -2.56,2.12 -1.64,1.16 -2.56,1.16 -0.76,0 -0.76,-0.84 0,-2.16 1.52,-6.6 -1.72,2.44 -4.2,5.12 -2.44,2.68 -3.84,2.68 -0.84,0 -0.84,-1.2 0,-1.72 1.2,-4.96 1.2,-3.28 2.84,-5.92 1.68,-2.68 2.8,-2.68 h 0.16 q 0.28,0 0.64,-0.28 0.4,-0.32 0.84,-0.32 0.6,0 1.68,0.32 1.12,0.32 1.2,0.32 0.04,0 0.04,-0.04 2.88,-7.76 2.96,-8 -0.44,0 -0.44,-0.48 0,-1.12 1.2,-2.92 0.16,-0.32 0.64,-0.32 0.52,0 1.08,0.28 z m -5.72,12.36 q 0,-0.44 -2.36,-0.44 -0.68,0 -1,0.08 -0.88,0.24 -3.4,4.84 -2.48,4.6 -2.48,6.72 0,0.64 0.4,0.64 0.4,0 1.16,-0.64 0.76,-0.64 1.4,-1.36 0.64,-0.72 1.4,-1.56 0.76,-0.88 0.8,-0.96 1.08,-1.2 1.96,-2.8 0.92,-1.64 1.48,-3.04 0.6,-1.4 0.64,-1.48 z"
               transform="matrix(0.9497336,0,0,0.9497336,-17.01917,-393.16533)" />
            <path
               id="path1060"
               style="font-style:normal;font-variant:normal;font-weight:normal;font-stretch:normal;font-size:40px;line-height:1.25;font-family:'Bilbo Swash Caps';-inkscape-font-specification:'Bilbo Swash Caps, Normal';font-variant-ligatures:normal;font-variant-caps:normal;font-variant-numeric:normal;font-feature-settings:normal;text-align:start;letter-spacing:0px;word-spacing:0px;writing-mode:lr-tb;text-anchor:start;fill:#c4c7c2;fill-opacity:1;stroke:#c4c7c2;stroke-width:0.47911516;stroke-miterlimit:4;stroke-dasharray:none;stroke-opacity:1"
               d="m 427.17234,581.56469 q 0.24,1.24 0.24,2 0,0.88 -0.6,1.52 -0.6,0.6 -1.56,0.88 -0.96,0.24 -1.72,0.36 -0.76,0.08 -1.44,0.08 -0.4,0 -0.92,0 -0.48,-0.04 -0.52,-0.04 -1.32,3.36 -1.32,5.28 0,1.6 1.2,1.6 0.84,0 1.96,-1.04 1.12,-1.08 1.96,-2.12 0.84,-1.08 1,-1.08 0.28,0 0.28,0.32 0,1.12 -2.2,3.12 -2.2,1.96 -3.44,1.96 -1,0 -1.84,-0.6 -0.8,-0.64 -0.8,-2.08 0,-0.44 0.12,-1.04 0.28,-1.52 0.72,-2.96 0.48,-1.44 0.52,-1.76 -0.6,-0.16 -0.6,-0.64 0,-0.44 0.68,-0.44 h 0.28 q 1.6,-3.16 1.84,-3.64 1.12,-2.12 4.28,-2.12 1.36,0 1.88,2.44 z m -1.44,1.92 q 0,-1 -0.2,-1.72 -0.2,-0.72 -0.48,-1 -0.24,-0.28 -0.52,-0.28 -0.8,0 -1.92,1.72 -1.08,1.72 -1.6,3.04 0.08,0 0.64,0.04 0.56,0.04 0.96,0.04 1.64,0 2.36,-0.36 0.72,-0.36 0.76,-1.48 z"
               transform="matrix(0.9497336,0,0,0.9497336,-17.01917,-393.16533)" />
            <g
               style="display:inline;fill:none;stroke:#c4c7c2;stroke-width:20.45614433;stroke-miterlimit:4;stroke-dasharray:none;stroke-opacity:1"
               id="g1078"
               transform="matrix(0.06628337,0,0,0.06628337,178.71594,126.5124)">
              <circle
                 r="160.0455"
                 cy="345.43222"
                 cx="970.53229"
                 transform="matrix(0.92853096,0,0,0.92853096,61.155559,174.47386)"
                 id="circle1062"
                 style="fill:none;stroke:#c4c7c2;stroke-width:22.03065491;stroke-linecap:butt;stroke-linejoin:miter;stroke-miterlimit:4;stroke-dasharray:none;stroke-opacity:1" />
              <circle
                 r="160.0455"
                 cy="345.43222"
                 cx="970.53229"
                 transform="matrix(0.92853096,0,0,0.92853096,61.155569,25.866663)"
                 id="circle1064"
                 style="fill:none;stroke:#c4c7c2;stroke-width:22.03065491;stroke-linecap:butt;stroke-linejoin:miter;stroke-miterlimit:4;stroke-dasharray:none;stroke-opacity:1" />
              <circle
                 r="160.0455"
                 cy="345.43222"
                 cx="970.53229"
                 transform="matrix(0.92853096,0,0,0.92853096,61.155569,323.08107)"
                 id="circle1066"
                 style="fill:none;stroke:#c4c7c2;stroke-width:22.03065491;stroke-linecap:butt;stroke-linejoin:miter;stroke-miterlimit:4;stroke-dasharray:none;stroke-opacity:1" />
              <circle
                 r="160.0455"
                 cy="345.43222"
                 cx="970.53229"
                 transform="matrix(0.92853096,0,0,0.92853096,-67.570641,100.17026)"
                 id="circle1068"
                 style="fill:none;stroke:#c4c7c2;stroke-width:22.03065491;stroke-linecap:butt;stroke-linejoin:miter;stroke-miterlimit:4;stroke-dasharray:none;stroke-opacity:1" />
              <circle
                 r="160.0455"
                 cy="345.43222"
                 cx="970.53229"
                 transform="matrix(0.92853096,0,0,0.92853096,189.88177,100.17027)"
                 id="circle1070"
                 style="fill:none;stroke:#c4c7c2;stroke-width:22.03065491;stroke-linecap:butt;stroke-linejoin:miter;stroke-miterlimit:4;stroke-dasharray:none;stroke-opacity:1" />
              <circle
                 r="160.0455"
                 cy="345.43222"
                 cx="970.53229"
                 transform="matrix(0.92853096,0,0,0.92853096,-67.569911,248.77746)"
                 id="circle1072"
                 style="fill:none;stroke:#c4c7c2;stroke-width:22.03065491;stroke-linecap:butt;stroke-linejoin:miter;stroke-miterlimit:4;stroke-dasharray:none;stroke-opacity:1" />
              <circle
                 r="160.0455"
                 cy="345.43222"
                 cx="970.53229"
                 transform="matrix(0.92853096,0,0,0.92853096,189.88177,248.77748)"
                 id="circle1074"
                 style="fill:none;stroke:#c4c7c2;stroke-width:22.03065491;stroke-linecap:butt;stroke-linejoin:miter;stroke-miterlimit:4;stroke-dasharray:none;stroke-opacity:1" />
              <circle
                 r="243.14604"
                 cy="446.99954"
                 cx="493.4736"
                 transform="matrix(1.2348381,0,0,1.2348381,352.96344,-56.753688)"
                 id="circle1076"
                 style="fill:none;stroke:#c4c7c2;stroke-width:16.56585121;stroke-miterlimit:4;stroke-dasharray:none;stroke-opacity:1" />
            </g>
          </g>
          <g
             id="g1581"
             transform="matrix(0.91818349,0,0,0.91818349,24.790635,11.92165)"
             style="filter:url(#filter1665)">
            <path
               transform="matrix(0.9497336,0,0,0.9497336,-17.01917,-393.16533)"
               d="m 313.31484,596.44469 q 0,0.72 -0.28,0.72 -0.28,0 -0.52,-0.48 -0.2,-0.48 -0.28,-0.92 -0.04,-0.44 -0.04,-0.72 -0.96,-0.44 -2.04,-1.16 -1.08,-0.72 -1.08,-1.36 0,-0.24 0.2,-0.24 0.12,0 0.72,0.4 0.6,0.36 1.28,0.84 0.72,0.44 0.92,0.52 0,-4.4 2.44,-11.76 2.48,-7.36 5.12,-12.76 -4.84,-1.16 -8.24,-1.16 -1.68,0 -3.2,0.32 -1.52,0.28 -2.92,0.96 -1.4,0.64 -2.24,1.96 -0.84,1.32 -0.84,3.12 0,4.08 3.88,7.68 0.16,-0.8 0.4,-0.8 0.28,0 0.68,0.88 0.44,0.84 0.44,1.16 0,0.52 -0.72,0.52 -1.48,0 -3,-1.68 -1.48,-1.72 -2.36,-3.84 -0.84,-2.12 -0.84,-3.6 0,-2.2 0.96,-3.76 1,-1.6 2.68,-2.4 1.68,-0.8 3.48,-1.16 1.8,-0.36 3.84,-0.36 3.68,0 8.52,1.04 0.56,-1.32 1.2,-1.88 0.04,0 0.08,0 0.16,0 0.36,-0.04 0.2,-0.04 0.44,-0.08 0.24,-0.08 0.4,-0.08 1.12,0 1.12,0.48 0,0.04 -0.04,0.08 0,0.04 0,0.08 -0.44,0.6 -1.16,1.96 1.48,0.4 3,1 1.52,0.56 3.24,1.48 1.72,0.92 2.76,2.24 1.08,1.32 1.08,2.84 0,1.4 -0.92,2.6 -0.88,1.16 -2.4,2 -1.48,0.8 -2.8,1.32 -1.28,0.52 -2.68,0.88 1.44,0.08 3.12,0.44 1.68,0.36 3.48,1.04 1.8,0.68 2.96,1.92 1.2,1.24 1.2,2.8 0,1.52 -1.4,3 -4.04,4.24 -11.48,4.24 -4.92,0 -8.56,-1.32 0,0.16 0,0.48 0.04,0.36 0.04,0.56 z m 17.56,-19.88 q 0,-1.24 -0.96,-2.36 -0.96,-1.16 -2.52,-1.96 -1.52,-0.8 -2.8,-1.32 -1.28,-0.52 -2.52,-0.88 h -0.04 q -3.24,5.64 -5.76,13.36 0.64,-0.2 1.76,-0.28 1.16,-0.12 1.52,-0.2 1.44,-0.24 3,-0.64 1.6,-0.44 3.64,-1.2 2.08,-0.76 3.36,-1.92 1.32,-1.2 1.32,-2.6 z m 0.28,16.56 q 1.68,-1.68 1.68,-3.28 0,-1.6 -1.32,-2.76 -1.28,-1.2 -3.28,-1.76 -1.96,-0.56 -3.72,-0.8 -1.76,-0.28 -3.2,-0.28 -0.44,0 -1.68,0.16 -1.24,0.12 -2.4,0.24 -1.12,0.12 -1.36,0.12 -0.04,0 -0.04,0 -2.04,6.32 -2.48,9.68 3.44,1.36 8.52,1.36 6.64,0 9.28,-2.68 z"
               style="font-style:normal;font-variant:normal;font-weight:normal;font-stretch:normal;font-size:40px;line-height:1.25;font-family:'Bilbo Swash Caps';-inkscape-font-specification:'Bilbo Swash Caps, Normal';font-variant-ligatures:normal;font-variant-caps:normal;font-variant-numeric:normal;font-feature-settings:normal;text-align:start;letter-spacing:0px;word-spacing:0px;writing-mode:lr-tb;text-anchor:start;fill:#c4c7c2;fill-opacity:1;stroke:#c4c7c2;stroke-width:0.47911516;stroke-miterlimit:4;stroke-dasharray:none;stroke-opacity:1"
               id="path1545" />
            <path
               transform="matrix(0.9497336,0,0,0.9497336,-17.01917,-393.16533)"
               d="m 349.44984,578.64469 q -0.12,0.36 -0.88,2.4 -0.76,2.04 -1.24,3.44 -0.72,2.04 -1.56,4.96 -0.8,2.92 -0.8,3.56 0,0.12 0.08,0.12 0.32,0 1.6,-1 1.32,-1 1.8,-1 0.32,0 0.32,0.2 0,0.28 -0.92,0.92 -0.88,0.64 -2.04,1.36 -1.16,0.68 -1.28,0.76 -0.28,0.24 -0.84,0.8 -0.52,0.6 -1,0.96 -0.44,0.4 -0.8,0.4 -0.52,0 -0.52,-0.44 0,-0.28 0.64,-0.88 0.64,-0.56 0.84,-1 0.68,-1.64 2.72,-9.56 -1.88,2.8 -5,6.28 -3.08,3.44 -4.64,3.44 -0.56,0 -0.56,-0.72 0,-0.6 0.44,-1.72 0,-0.04 0.96,-2.16 0.96,-2.12 1.52,-3.64 0.6,-1.56 0.6,-2.24 0,-0.2 -0.08,-0.36 -0.08,-0.2 -0.08,-0.32 0,-0.04 0.08,-0.44 0.68,-2.56 1.28,-3.36 0.6,-0.84 2,-0.84 0.56,0 0.68,0.36 -4.8,11.8 -4.8,12.36 0,0.16 0.12,0.16 0.16,0 0.96,-0.64 4,-3.08 7.04,-8.64 0.04,-1.24 0.76,-2.56 0.72,-1.32 2.12,-1.32 0.44,0 0.48,0.36 z"
               style="font-style:normal;font-variant:normal;font-weight:normal;font-stretch:normal;font-size:40px;line-height:1.25;font-family:'Bilbo Swash Caps';-inkscape-font-specification:'Bilbo Swash Caps, Normal';font-variant-ligatures:normal;font-variant-caps:normal;font-variant-numeric:normal;font-feature-settings:normal;text-align:start;letter-spacing:0px;word-spacing:0px;writing-mode:lr-tb;text-anchor:start;fill:#c4c7c2;fill-opacity:1;stroke:#c4c7c2;stroke-width:0.47911516;stroke-miterlimit:4;stroke-dasharray:none;stroke-opacity:1"
               id="path1547" />
            <path
               transform="matrix(0.9497336,0,0,0.9497336,-17.01917,-393.16533)"
               d="m 359.92922,580.28469 q -0.08,0.8 -1.04,2.28 -0.96,1.48 -1.48,1.48 -0.16,0 -0.16,-0.24 0,-0.36 0.44,-1.44 0.44,-1.12 0.44,-1.44 0,-0.6 -0.72,-0.6 -0.12,0 -1.32,0.2 -1,0.24 -2.64,1.28 -1.6,1.04 -1.6,2.28 0,0.44 0.2,0.8 0.52,1.04 1.8,1.76 1.32,0.72 2.24,1.36 0.96,0.64 0.96,1.68 0,1.76 -2.72,3.4 -2.68,1.6 -4.6,1.6 -0.32,0 -0.52,-0.28 -0.2,-0.24 -0.2,-0.52 0,-0.48 0.44,-0.48 1.32,0 3.68,-0.8 2.4,-0.84 2.4,-1.8 0,-0.56 -0.92,-1.32 -0.88,-0.76 -1.96,-1.4 -1.04,-0.64 -1.96,-1.52 -0.88,-0.92 -0.88,-1.76 0,-0.68 0.48,-1.28 0.36,-0.44 0.76,-0.84 0.4,-0.44 0.76,-0.76 0.36,-0.32 0.8,-0.64 0.48,-0.32 0.84,-0.56 0.36,-0.24 0.84,-0.48 0.48,-0.24 0.76,-0.36 0.28,-0.16 0.72,-0.36 0.48,-0.2 0.64,-0.24 0.2,-0.08 0.6,-0.24 0.4,-0.16 0.44,-0.16 0.68,-0.2 1.04,-0.2 1.44,0 1.44,1.6 z"
               style="font-style:normal;font-variant:normal;font-weight:normal;font-stretch:normal;font-size:40px;line-height:1.25;font-family:'Bilbo Swash Caps';-inkscape-font-specification:'Bilbo Swash Caps, Normal';font-variant-ligatures:normal;font-variant-caps:normal;font-variant-numeric:normal;font-feature-settings:normal;text-align:start;letter-spacing:0px;word-spacing:0px;writing-mode:lr-tb;text-anchor:start;fill:#c4c7c2;fill-opacity:1;stroke:#c4c7c2;stroke-width:0.47911516;stroke-miterlimit:4;stroke-dasharray:none;stroke-opacity:1"
               id="path1549" />
            <path
               transform="matrix(0.9497336,0,0,0.9497336,-17.01917,-393.16533)"
               d="m 371.96547,579.84469 q -2.16,3.48 -4.04,7.76 -1.84,4.24 -1.84,6.6 0,0.56 0.32,0.56 0.12,0 0.68,-0.36 0.6,-0.36 0.72,-0.36 0.2,0 0.2,0.24 0,0.48 -0.76,1 -0.76,0.56 -1.48,0.56 -1,0 -1,-1.48 0,-1.72 1.12,-4.84 1.12,-3.16 2.24,-5.72 1.12,-2.6 1.12,-2.92 0,-0.08 -0.04,-0.08 -0.16,0 -0.72,0.6 -2.52,2.84 -4.24,5.56 -1.72,2.68 -2.32,4.12 -0.56,1.44 -1.2,2.32 -0.6,0.84 -1.44,0.84 -0.36,0 -0.36,-0.4 0,-0.36 0.2,-0.8 1.08,-2.8 2.08,-5.8 1,-3 2.12,-6.68 1.16,-3.72 1.88,-5.88 0.12,-0.36 0.12,-0.72 0,-0.16 -0.04,-0.28 -0.04,-0.16 -0.04,-0.24 0,-0.16 0.12,-0.52 0.92,-2.56 1.56,-3.36 0.64,-0.84 1.96,-0.84 0.52,0 0.6,0.36 -4.36,8.8 -7.08,18.72 5.96,-9.32 9,-9.32 0.84,0 0.84,0.56 0,0.36 -0.28,0.8 z"
               style="font-style:normal;font-variant:normal;font-weight:normal;font-stretch:normal;font-size:40px;line-height:1.25;font-family:'Bilbo Swash Caps';-inkscape-font-specification:'Bilbo Swash Caps, Normal';font-variant-ligatures:normal;font-variant-caps:normal;font-variant-numeric:normal;font-feature-settings:normal;text-align:start;letter-spacing:0px;word-spacing:0px;writing-mode:lr-tb;text-anchor:start;fill:#c4c7c2;fill-opacity:1;stroke:#c4c7c2;stroke-width:0.47911516;stroke-miterlimit:4;stroke-dasharray:none;stroke-opacity:1"
               id="path1551" />
            <path
               transform="matrix(0.9497336,0,0,0.9497336,-17.01917,-393.16533)"
               d="m 372.58734,593.56469 q -0.2,0.48 -0.4,0.48 -0.36,0 -0.8,-0.48 -0.44,-0.48 -0.44,-1.12 0,-0.6 0.96,-3.04 0.12,-0.32 0.36,-0.48 0.28,-0.16 0.32,-0.28 4.32,-11.24 6.84,-19.88 l 0.32,-0.24 q 0.28,-0.24 0.68,-0.48 0.44,-0.24 0.72,-0.24 0.4,0 0.4,0.6 -0.44,1.64 -2.8,8.04 -2.36,6.4 -3.88,10.08 1.52,-2.28 4,-5.08 2.52,-2.84 3.76,-2.84 0.8,0 0.8,1.48 v 0.28 q -0.04,0.8 -0.76,3.6 0.88,-0.44 1.2,-0.44 0.12,0 0.12,0.08 0,0.2 -0.52,0.6 -0.48,0.4 -1,0.6 -1.56,5.16 -3.04,6.8 -0.56,0.6 -2.28,1.68 -1.72,1.04 -2.12,1.04 -1.64,0 -2.44,-0.76 z m 7.88,-7.8 q -4.72,2.48 -6.08,3.96 -0.24,0.48 -0.6,1.24 -0.32,0.76 -0.44,1 0.96,1.08 1.96,1.08 1.64,0 3.04,-2.44 1.44,-2.44 2.12,-4.84 z m 0.32,-0.88 q 0.64,-1.68 0.72,-3.48 0,-0.84 -0.4,-0.84 -1.32,0 -6.44,8.16 2.4,-1.96 6.12,-3.84 z"
               style="font-style:normal;font-variant:normal;font-weight:normal;font-stretch:normal;font-size:40px;line-height:1.25;font-family:'Bilbo Swash Caps';-inkscape-font-specification:'Bilbo Swash Caps, Normal';font-variant-ligatures:normal;font-variant-caps:normal;font-variant-numeric:normal;font-feature-settings:normal;text-align:start;letter-spacing:0px;word-spacing:0px;writing-mode:lr-tb;text-anchor:start;fill:#c4c7c2;fill-opacity:1;stroke:#c4c7c2;stroke-width:0.47911516;stroke-miterlimit:4;stroke-dasharray:none;stroke-opacity:1"
               id="path1553" />
            <path
               transform="matrix(0.9497336,0,0,0.9497336,-17.01917,-393.16533)"
               d="m 393.50609,569.08469 q -2.2,4.56 -4.48,11.04 -2.28,6.44 -3.36,11.28 -0.04,0.12 -0.04,0.32 0,0.48 0.4,0.48 0.24,0 1.28,-0.6 1.08,-0.6 1.36,-0.6 0.24,0 0.36,0.16 0,0.48 -2,1.8 -2,1.28 -2.84,1.28 -0.76,0 -0.76,-0.72 0,-0.4 0.16,-0.84 1.04,-2.84 1.92,-5.64 0.92,-2.8 2.08,-6.64 1.16,-3.88 1.72,-5.72 0.12,-0.36 0.12,-0.72 0,-0.16 -0.08,-0.28 -0.04,-0.16 -0.04,-0.28 0,-0.12 0.12,-0.48 0.8,-2.52 1.48,-3.36 0.68,-0.84 2,-0.84 0.56,0 0.6,0.36 z"
               style="font-style:normal;font-variant:normal;font-weight:normal;font-stretch:normal;font-size:40px;line-height:1.25;font-family:'Bilbo Swash Caps';-inkscape-font-specification:'Bilbo Swash Caps, Normal';font-variant-ligatures:normal;font-variant-caps:normal;font-variant-numeric:normal;font-feature-settings:normal;text-align:start;letter-spacing:0px;word-spacing:0px;writing-mode:lr-tb;text-anchor:start;fill:#c4c7c2;fill-opacity:1;stroke:#c4c7c2;stroke-width:0.47911516;stroke-miterlimit:4;stroke-dasharray:none;stroke-opacity:1"
               id="path1555" />
            <path
               transform="matrix(0.9497336,0,0,0.9497336,-17.01917,-393.16533)"
               d="m 403.21359,590.80469 q -0.04,0.04 -0.36,0.36 -0.32,0.28 -0.52,0.44 -0.2,0.16 -0.6,0.52 -0.36,0.32 -0.64,0.52 -0.28,0.2 -0.68,0.48 -0.4,0.28 -0.72,0.44 -0.28,0.12 -0.6,0.24 -0.32,0.12 -0.6,0.12 -0.84,0 -1,-1 0,-1.68 1.32,-6.2 -5.36,7.4 -7.68,7.4 -0.96,0 -0.96,-1.44 0,-1.84 1.08,-4.96 1.12,-3.16 2.72,-5.68 1.6,-2.56 2.8,-2.56 h 0.12 l 0.44,-0.32 q 0.36,-0.4 1.12,-0.4 0.6,0 1.68,0.32 1.08,0.32 1.2,0.32 0.16,0 0.4,-0.32 0.28,-0.32 0.64,-0.32 1,0 1,0.88 0,0.36 -0.16,0.8 -0.12,0.44 -0.4,1.04 -0.24,0.56 -0.28,0.68 -0.04,0.08 -0.4,0.24 -0.32,0.16 -0.36,0.28 -0.88,2.48 -1.56,5.32 -0.68,2.8 -0.68,3.44 0,1 0.56,1 0.56,0 1.36,-0.68 0.84,-0.68 1.44,-1.36 0.6,-0.68 0.64,-0.68 0.08,0 0.08,0.16 0,0.6 -0.4,0.92 z m -2.64,-10.64 q -0.24,0 -0.84,-0.08 -0.56,-0.08 -0.96,-0.08 -0.56,0 -1.2,0.16 -1,0.28 -3.28,4.76 -2.28,4.44 -2.28,6.64 0,0.68 0.4,0.68 0.84,0 2.96,-2.44 2.16,-2.44 2.84,-3.48 1,-1.6 1.84,-3.44 0.84,-1.88 0.84,-2.48 0,-0.24 -0.2,-0.24 z"
               style="font-style:normal;font-variant:normal;font-weight:normal;font-stretch:normal;font-size:40px;line-height:1.25;font-family:'Bilbo Swash Caps';-inkscape-font-specification:'Bilbo Swash Caps, Normal';font-variant-ligatures:normal;font-variant-caps:normal;font-variant-numeric:normal;font-feature-settings:normal;text-align:start;letter-spacing:0px;word-spacing:0px;writing-mode:lr-tb;text-anchor:start;fill:#c4c7c2;fill-opacity:1;stroke:#c4c7c2;stroke-width:0.47911516;stroke-miterlimit:4;stroke-dasharray:none;stroke-opacity:1"
               id="path1557" />
            <path
               transform="matrix(0.9497336,0,0,0.9497336,-17.01917,-393.16533)"
               d="m 420.09859,568.08469 q 0.12,0.08 0.12,0.36 0,0.64 -0.64,2.4 -0.6,1.72 -1.72,4.52 -1.08,2.76 -1.68,4.52 0.04,-0.04 0.08,-0.04 0.16,0 0.32,0.28 0.2,0.28 0.2,0.52 0,0.24 -0.4,0.24 -0.52,0 -0.56,-0.12 -0.8,1.8 -2.04,5.84 -1.2,4.04 -1.2,4.96 0,0.92 0.52,0.92 0.6,0 1.4,-0.68 0.8,-0.72 1.4,-1.44 0.64,-0.72 0.76,-0.72 0.12,0 0.12,0.2 0,0.12 -0.08,0.32 -0.04,0.2 -0.12,0.36 -0.04,0.12 -0.08,0.12 -0.92,0.92 -2.56,2.12 -1.64,1.16 -2.56,1.16 -0.76,0 -0.76,-0.84 0,-2.16 1.52,-6.6 -1.72,2.44 -4.2,5.12 -2.44,2.68 -3.84,2.68 -0.84,0 -0.84,-1.2 0,-1.72 1.2,-4.96 1.2,-3.28 2.84,-5.92 1.68,-2.68 2.8,-2.68 h 0.16 q 0.28,0 0.64,-0.28 0.4,-0.32 0.84,-0.32 0.6,0 1.68,0.32 1.12,0.32 1.2,0.32 0.04,0 0.04,-0.04 2.88,-7.76 2.96,-8 -0.44,0 -0.44,-0.48 0,-1.12 1.2,-2.92 0.16,-0.32 0.64,-0.32 0.52,0 1.08,0.28 z m -5.72,12.36 q 0,-0.44 -2.36,-0.44 -0.68,0 -1,0.08 -0.88,0.24 -3.4,4.84 -2.48,4.6 -2.48,6.72 0,0.64 0.4,0.64 0.4,0 1.16,-0.64 0.76,-0.64 1.4,-1.36 0.64,-0.72 1.4,-1.56 0.76,-0.88 0.8,-0.96 1.08,-1.2 1.96,-2.8 0.92,-1.64 1.48,-3.04 0.6,-1.4 0.64,-1.48 z"
               style="font-style:normal;font-variant:normal;font-weight:normal;font-stretch:normal;font-size:40px;line-height:1.25;font-family:'Bilbo Swash Caps';-inkscape-font-specification:'Bilbo Swash Caps, Normal';font-variant-ligatures:normal;font-variant-caps:normal;font-variant-numeric:normal;font-feature-settings:normal;text-align:start;letter-spacing:0px;word-spacing:0px;writing-mode:lr-tb;text-anchor:start;fill:#c4c7c2;fill-opacity:1;stroke:#c4c7c2;stroke-width:0.47911516;stroke-miterlimit:4;stroke-dasharray:none;stroke-opacity:1"
               id="path1559" />
            <path
               transform="matrix(0.9497336,0,0,0.9497336,-17.01917,-393.16533)"
               d="m 427.17234,581.56469 q 0.24,1.24 0.24,2 0,0.88 -0.6,1.52 -0.6,0.6 -1.56,0.88 -0.96,0.24 -1.72,0.36 -0.76,0.08 -1.44,0.08 -0.4,0 -0.92,0 -0.48,-0.04 -0.52,-0.04 -1.32,3.36 -1.32,5.28 0,1.6 1.2,1.6 0.84,0 1.96,-1.04 1.12,-1.08 1.96,-2.12 0.84,-1.08 1,-1.08 0.28,0 0.28,0.32 0,1.12 -2.2,3.12 -2.2,1.96 -3.44,1.96 -1,0 -1.84,-0.6 -0.8,-0.64 -0.8,-2.08 0,-0.44 0.12,-1.04 0.28,-1.52 0.72,-2.96 0.48,-1.44 0.52,-1.76 -0.6,-0.16 -0.6,-0.64 0,-0.44 0.68,-0.44 h 0.28 q 1.6,-3.16 1.84,-3.64 1.12,-2.12 4.28,-2.12 1.36,0 1.88,2.44 z m -1.44,1.92 q 0,-1 -0.2,-1.72 -0.2,-0.72 -0.48,-1 -0.24,-0.28 -0.52,-0.28 -0.8,0 -1.92,1.72 -1.08,1.72 -1.6,3.04 0.08,0 0.64,0.04 0.56,0.04 0.96,0.04 1.64,0 2.36,-0.36 0.72,-0.36 0.76,-1.48 z"
               style="font-style:normal;font-variant:normal;font-weight:normal;font-stretch:normal;font-size:40px;line-height:1.25;font-family:'Bilbo Swash Caps';-inkscape-font-specification:'Bilbo Swash Caps, Normal';font-variant-ligatures:normal;font-variant-caps:normal;font-variant-numeric:normal;font-feature-settings:normal;text-align:start;letter-spacing:0px;word-spacing:0px;writing-mode:lr-tb;text-anchor:start;fill:#c4c7c2;fill-opacity:1;stroke:#c4c7c2;stroke-width:0.47911516;stroke-miterlimit:4;stroke-dasharray:none;stroke-opacity:1"
               id="path1561" />
            <g
               transform="matrix(0.06628337,0,0,0.06628337,178.71594,126.5124)"
               id="g1579"
               style="display:inline;fill:none;stroke:#c4c7c2;stroke-width:20.45614433;stroke-miterlimit:4;stroke-dasharray:none;stroke-opacity:1">
              <circle
                 style="fill:none;stroke:#c4c7c2;stroke-width:22.03065491;stroke-linecap:butt;stroke-linejoin:miter;stroke-miterlimit:4;stroke-dasharray:none;stroke-opacity:1"
                 id="circle1563"
                 transform="matrix(0.92853096,0,0,0.92853096,61.155559,174.47386)"
                 cx="970.53229"
                 cy="345.43222"
                 r="160.0455" />
              <circle
                 style="fill:none;stroke:#c4c7c2;stroke-width:22.03065491;stroke-linecap:butt;stroke-linejoin:miter;stroke-miterlimit:4;stroke-dasharray:none;stroke-opacity:1"
                 id="circle1565"
                 transform="matrix(0.92853096,0,0,0.92853096,61.155569,25.866663)"
                 cx="970.53229"
                 cy="345.43222"
                 r="160.0455" />
              <circle
                 style="fill:none;stroke:#c4c7c2;stroke-width:22.03065491;stroke-linecap:butt;stroke-linejoin:miter;stroke-miterlimit:4;stroke-dasharray:none;stroke-opacity:1"
                 id="circle1567"
                 transform="matrix(0.92853096,0,0,0.92853096,61.155569,323.08107)"
                 cx="970.53229"
                 cy="345.43222"
                 r="160.0455" />
              <circle
                 style="fill:none;stroke:#c4c7c2;stroke-width:22.03065491;stroke-linecap:butt;stroke-linejoin:miter;stroke-miterlimit:4;stroke-dasharray:none;stroke-opacity:1"
                 id="circle1569"
                 transform="matrix(0.92853096,0,0,0.92853096,-67.570641,100.17026)"
                 cx="970.53229"
                 cy="345.43222"
                 r="160.0455" />
              <circle
                 style="fill:none;stroke:#c4c7c2;stroke-width:22.03065491;stroke-linecap:butt;stroke-linejoin:miter;stroke-miterlimit:4;stroke-dasharray:none;stroke-opacity:1"
                 id="circle1571"
                 transform="matrix(0.92853096,0,0,0.92853096,189.88177,100.17027)"
                 cx="970.53229"
                 cy="345.43222"
                 r="160.0455" />
              <circle
                 style="fill:none;stroke:#c4c7c2;stroke-width:22.03065491;stroke-linecap:butt;stroke-linejoin:miter;stroke-miterlimit:4;stroke-dasharray:none;stroke-opacity:1"
                 id="circle1573"
                 transform="matrix(0.92853096,0,0,0.92853096,-67.569911,248.77746)"
                 cx="970.53229"
                 cy="345.43222"
                 r="160.0455" />
              <circle
                 style="fill:none;stroke:#c4c7c2;stroke-width:22.03065491;stroke-linecap:butt;stroke-linejoin:miter;stroke-miterlimit:4;stroke-dasharray:none;stroke-opacity:1"
                 id="circle1575"
                 transform="matrix(0.92853096,0,0,0.92853096,189.88177,248.77748)"
                 cx="970.53229"
                 cy="345.43222"
                 r="160.0455" />
              <circle
                 style="fill:none;stroke:#c4c7c2;stroke-width:16.56585121;stroke-miterlimit:4;stroke-dasharray:none;stroke-opacity:1"
                 id="circle1577"
                 transform="matrix(1.2348381,0,0,1.2348381,352.96344,-56.753688)"
                 cx="493.4736"
                 cy="446.99954"
                 r="243.14604" />
            </g>
          </g>
        </g>
      </g>
    </g>
  </g>
</svg>
